<?xml version="1.0" encoding="utf-8"?>
<!-- Generator: Adobe Illustrator 15.0.2, SVG Export Plug-In . SVG Version: 6.00 Build 0)  -->
<!DOCTYPE svg PUBLIC "-//W3C//DTD SVG 1.1//EN" "http://www.w3.org/Graphics/SVG/1.1/DTD/svg11.dtd">
<svg version="1.1" id="health1nsurance-logo" xmlns="http://www.w3.org/2000/svg" x="0px" y="0px"
     width="1000px" height="80px" viewBox="-126.999 -10.342 1000 80" enable-background="new -126.999 -10.342 1000 80"
     xml:space="preserve">
<path fill="#85C236" d="M215.889-7.925h-37.633v37.863c0,20.825,16.936,37.864,37.632,37.864h37.633V29.937
	C253.521,9.114,236.587-7.925,215.889-7.925"/>
    <path fill="#2687BF" d="M-126.999,68.163v-78.505h7.591h7.646v27.761l1.213-1.696c3.749-4.812,9.204-7.219,16.359-7.219
	c6.087,0,10.85,1.822,14.292,5.45c3.461,3.628,5.182,8.677,5.182,15.11v39.097h-7.591h-7.645V31.835
	c0-3.591-0.762-6.253-2.302-7.984c-1.54-1.731-3.913-2.588-7.102-2.588c-3.985,0-7.065,1.204-9.203,3.627
	c-2.139,2.425-3.208,5.923-3.208,10.482v32.791h-7.588H-126.999z"/>
    <path fill="#2687BF" d="M-29.509,33.13L-29.509,33.13c-0.361-3.5-1.268-6.216-2.754-8.184c-1.955-2.606-4.98-3.901-9.076-3.901
	c-3.931,0-6.919,1.514-8.966,4.537c-1.267,1.933-2.191,4.448-2.755,7.548H-29.509z M-41.121,69.657
	c-8.787,0-15.544-2.717-20.309-8.166c-4.764-5.451-7.138-13.215-7.138-23.293c0-9.297,2.428-16.57,7.264-21.82
	c4.855-5.249,11.576-7.874,20.181-7.874c8.805,0,15.579,2.679,20.346,8.037c4.764,5.36,7.136,12.979,7.136,22.895
	c0.074,1.131-0.018,2.297-0.271,3.463h-39.311c0.363,4.594,1.358,8.037,3.026,10.316c2.119,2.842,5.67,4.266,10.615,4.266
	c2.301,0,4.438-0.656,6.396-1.969c1.976-1.33,3.152-2.898,3.533-4.758h15.489c-1.304,5.906-4.348,10.535-9.095,13.891
	C-28.023,67.98-33.981,69.657-41.121,69.657z"/>
    <path fill="#2687BF" d="M28.438,46.693v-6.674c-1.774,1.004-4.094,1.805-7.01,2.408l-5.617,1.057
	c-2.645,0.512-4.673,1.422-6.051,2.752c-1.377,1.33-2.065,3.025-2.065,5.047c0,2.318,0.616,4.123,1.867,5.451
	c1.23,1.313,2.953,1.969,5.181,1.969c4.892,0,8.787-1.73,11.684-5.176c0.562-0.674,1.033-1.678,1.432-2.99
	C28.238,49.224,28.438,47.931,28.438,46.693 M10.123,69.657c-5.345,0-9.637-1.531-12.881-4.611
	c-3.262-3.08-4.892-7.146-4.892-12.158c0-5.307,1.468-9.551,4.402-12.74c2.934-3.172,7.209-5.176,12.844-5.996l10.037-1.385
	c2.608-0.367,4.781-0.967,6.521-1.824c0.742-0.364,1.322-1.002,1.721-1.933c0.418-0.91,0.562-1.858,0.453-2.825
	c-0.218-1.64-1.05-2.918-2.501-3.847c-1.721-1.111-4.221-1.658-7.463-1.658c-2.917,0-5.181,0.71-6.794,2.133
	c-1.63,1.423-2.5,3.427-2.608,6.034h-14.6c0.326-6.8,2.627-11.884,6.901-15.275C5.538,10.2,11.825,8.505,20.105,8.505
	c7.191,0,12.843,1.53,17.011,4.575c4.146,3.044,6.23,7.199,6.23,12.467v32.464c0,2.607,0.219,4.43,0.634,5.488
	c0.436,1.037,1.285,1.875,2.555,2.479v0.053v2.078H38.31h-8.223v-0.02c-0.671-2.35-1.124-4.631-1.322-6.871l-0.056-0.109
	C23.927,66.816,17.731,69.657,10.123,69.657z"/>
    <polygon fill="#2687BF" points="53.244,68.163 53.244,-10.342 60.836,-10.342 68.48,-10.342 68.48,68.163 60.891,68.163 "/>
    <path fill="#2687BF" d="M107.021,68.474c-2.554,0.219-5.689,0.328-9.402,0.328c-5.381,0-9.24-0.967-11.595-2.918
	c-2.354-1.932-3.532-5.104-3.532-9.531V20.791h-8.007V10.054h8.007V-5.586h15.234v15.641h9.294v10.736h-9.294v32.992
	c0,1.367,0.399,2.242,1.197,2.68c0.796,0.42,2.446,0.637,4.964,0.637h3.134V68.474L107.021,68.474z"/>
    <path fill="#2687BF" d="M114.026,68.163v-78.505h7.59h7.646v27.761l1.214-1.696c3.749-4.812,9.203-7.219,16.358-7.219
	c6.087,0,10.85,1.822,14.292,5.45c3.461,3.628,5.183,8.677,5.183,15.11v39.097h-7.591h-7.646V31.835
	c0-3.591-0.761-6.253-2.301-7.984c-1.54-1.731-3.913-2.588-7.103-2.588c-3.984,0-7.065,1.204-9.202,3.627
	c-2.14,2.425-3.208,5.923-3.208,10.482v32.791h-7.591H114.026z"/>
    <path fill="#85C236" d="M263.784,68.163V10.054h7.229h7.264v8.604c0.599-1.04,1.251-2.022,1.957-2.954
	c3.749-4.793,9.204-7.199,16.359-7.199c6.086,0,10.851,1.822,14.292,5.45c3.461,3.629,5.181,8.677,5.181,15.111v39.097h-7.589
	h-7.646V31.835c0-3.591-0.761-6.253-2.3-7.984c-1.541-1.731-3.913-2.588-7.103-2.588c-3.985,0-7.065,1.204-9.202,3.627
	c-2.139,2.425-3.207,5.923-3.207,10.482v32.791h-7.592H263.784z"/>
    <path fill="#85C236" d="M359.803,27.461L359.803,27.461c0-2.242-0.924-4.047-2.753-5.396c-1.848-1.349-4.294-2.022-7.337-2.022
	c-2.935,0-5.219,0.511-6.866,1.512c-1.647,1.022-2.464,2.444-2.464,4.248c0,1.293,0.942,2.387,2.809,3.316
	c1.848,0.893,5.108,1.876,9.817,2.935c9.33,2.096,15.581,4.393,18.715,6.889c3.172,2.496,4.746,6.416,4.746,11.758
	c0,5.686-2.283,10.277-6.865,13.74c-4.584,3.482-10.634,5.213-18.135,5.213c-8.878,0-15.725-1.713-20.507-5.121
	c-4.802-3.428-7.356-8.4-7.682-14.965h15.489c0.108,2.68,1.285,4.758,3.532,6.27c2.245,1.512,5.307,2.277,9.166,2.277
	c3.043,0,5.435-0.527,7.139-1.568c1.72-1.057,2.588-2.531,2.588-4.41c0-1.314-0.834-2.443-2.498-3.371
	c-1.667-0.895-4.583-1.787-8.751-2.719c-9.783-2.205-16.305-4.539-19.603-6.998c-3.278-2.422-4.927-6.178-4.927-11.264
	c0-5.777,2.138-10.426,6.395-13.961c4.258-3.555,9.875-5.324,16.849-5.324c7.862,0,14.186,1.732,19.003,5.214
	c4.802,3.461,7.209,8.055,7.209,13.742h-15.069V27.461z"/>
    <path fill="#85C236" d="M399.354,10.054v36.382c0,3.555,0.76,6.197,2.281,7.895c1.521,1.713,3.859,2.566,7.012,2.566
	c3.947,0,6.99-1.201,9.111-3.625c2.119-2.424,3.188-5.924,3.188-10.482V10.054h7.592h7.645v58.109h-7.23h-7.264V59.45
	c-0.527,1.074-1.16,2.078-1.902,3.006c-3.75,4.795-9.186,7.201-16.303,7.201c-6.086,0-10.834-1.805-14.24-5.414
	c-3.424-3.627-5.127-8.641-5.127-15.039v-39.15h7.592H399.354z"/>
    <path fill="#85C236" d="M443.501,68.163V10.054h7.229h7.266v10.408c0.523-1.13,1.139-2.243,1.811-3.3
	c3.568-5.777,8.188-8.657,13.857-8.657l3.441,0.055v15.657c-1.338-0.146-2.861-0.219-4.564-0.219c-4.637,0-8.098,1.147-10.381,3.462
	c-2.283,2.316-3.422,5.832-3.422,10.519v30.184h-7.59H443.501z"/>
    <path fill="#85C236" d="M515.858,46.693v-6.674c-1.775,1.004-4.096,1.805-7.012,2.408l-5.613,1.057
	c-2.646,0.512-4.674,1.422-6.053,2.752c-1.377,1.33-2.064,3.025-2.064,5.047c0,2.318,0.615,4.123,1.867,5.451
	c1.23,1.313,2.951,1.969,5.182,1.969c4.889,0,8.787-1.73,11.684-5.176c0.563-0.674,1.033-1.678,1.43-2.99
	C515.657,49.224,515.858,47.931,515.858,46.693 M497.542,69.657c-5.344,0-9.637-1.531-12.879-4.611
	c-3.262-3.08-4.891-7.146-4.891-12.158c0-5.307,1.467-9.551,4.4-12.74c2.936-3.172,7.211-5.176,12.844-5.996l10.037-1.385
	c2.609-0.367,4.783-0.967,6.521-1.824c0.742-0.364,1.322-1.002,1.721-1.933c0.418-0.91,0.563-1.858,0.455-2.825
	c-0.219-1.64-1.053-2.918-2.502-3.847c-1.721-1.111-4.219-1.658-7.463-1.658c-2.918,0-5.18,0.71-6.793,2.133
	c-1.631,1.423-2.5,3.427-2.607,6.034h-14.602c0.326-6.8,2.627-11.884,6.9-15.275c4.275-3.371,10.563-5.066,18.842-5.066
	c7.191,0,12.842,1.53,17.01,4.575c4.148,3.044,6.232,7.199,6.232,12.467v32.464c0,2.607,0.217,4.43,0.633,5.488
	c0.436,1.037,1.287,1.875,2.555,2.479v0.053v2.078h-8.225h-8.227v-0.02c-0.67-2.35-1.123-4.631-1.32-6.871l-0.055-0.109
	C511.349,66.816,505.151,69.657,497.542,69.657z"/>
    <path fill="#85C236" d="M540.077,68.163V10.054h7.23h7.264v8.604c0.6-1.04,1.25-2.022,1.957-2.954
	c3.75-4.793,9.203-7.199,16.359-7.199c6.086,0,10.852,1.822,14.293,5.45c3.461,3.629,5.18,8.677,5.18,15.111v39.097h-7.588h-7.646
	V31.835c0-3.591-0.762-6.253-2.301-7.984c-1.539-1.731-3.914-2.588-7.104-2.588c-3.984,0-7.063,1.204-9.199,3.627
	c-2.141,2.425-3.209,5.923-3.209,10.482v32.791h-7.59H540.077z"/>
    <path fill="#85C236" d="M653.288,46.638L653.288,46.638c-0.777,7.234-3.439,12.867-8.008,16.934
	c-4.564,4.064-10.506,6.086-17.844,6.086c-8.732,0-15.471-2.623-20.234-7.854c-4.766-5.234-7.139-12.686-7.139-22.365
	c0-9.478,2.465-17.007,7.408-22.567c4.928-5.578,11.594-8.366,19.965-8.366c7.445,0,13.516,2.061,18.26,6.197
	c4.748,4.12,7.264,9.552,7.59,16.277h-15.488c-0.145-2.878-1.16-5.213-3.043-6.997c-1.904-1.769-4.33-2.663-7.301-2.663
	c-3.824,0-6.738,1.55-8.732,4.631c-2.012,3.079-3.006,7.564-3.006,13.488c0,5.76,0.994,10.15,3.006,13.16
	c1.992,3.006,4.908,4.521,8.732,4.521c2.754,0,5.09-0.967,6.992-2.881c1.922-1.934,3.025-4.467,3.352-7.6h15.49V46.638z"/>
    <path fill="#85C236" d="M699.38,33.13L699.38,33.13c-0.363-3.5-1.268-6.216-2.754-8.184c-1.957-2.606-4.982-3.901-9.076-3.901
	c-3.932,0-6.92,1.514-8.967,4.537c-1.268,1.933-2.191,4.448-2.754,7.548H699.38z M687.769,69.657
	c-8.787,0-15.547-2.717-20.309-8.166c-4.762-5.451-7.139-13.215-7.139-23.293c0-9.297,2.43-16.57,7.266-21.82
	c4.855-5.249,11.576-7.874,20.184-7.874c8.803,0,15.578,2.679,20.344,8.037c4.764,5.36,7.137,12.979,7.137,22.895
	c0.074,1.131-0.02,2.297-0.271,3.463h-39.313c0.361,4.594,1.357,8.037,3.025,10.316c2.119,2.842,5.67,4.266,10.615,4.266
	c2.301,0,4.439-0.656,6.396-1.969c1.977-1.33,3.152-2.898,3.531-4.758h15.49c-1.305,5.906-4.348,10.535-9.096,13.891
	C700.864,67.98,694.905,69.657,687.769,69.657z"/>
    <rect x="724.263" y="52.251" fill="#85C236" width="16.23" height="15.912"/>
    <path fill="#85C236" d="M778.921,56.097L778.921,56.097c-0.461,4.264-2.029,7.58-4.719,9.977c-2.689,2.393-6.189,3.584-10.512,3.584
	c-5.145,0-9.113-1.545-11.92-4.627c-2.811-3.082-4.207-7.475-4.207-13.174c0-5.586,1.453-10.021,4.365-13.293
	c2.902-3.287,6.83-4.93,11.76-4.93c4.385,0,7.963,1.213,10.756,3.65c2.797,2.428,4.279,5.627,4.473,9.59h-9.125
	c-0.086-1.697-0.684-3.072-1.793-4.123c-1.121-1.041-2.551-1.568-4.301-1.568c-2.252,0-3.969,0.912-5.145,2.727
	c-1.184,1.813-1.771,4.455-1.771,7.947c0,3.393,0.588,5.979,1.771,7.75c1.176,1.771,2.893,2.664,5.145,2.664
	c1.621,0,2.998-0.568,4.119-1.697c1.131-1.139,1.781-2.629,1.975-4.477H778.921L778.921,56.097z"/>
    <path fill="#85C236" d="M800.562,62.111c2.668,0,4.705-0.881,6.104-2.641c1.398-1.764,2.094-4.34,2.094-7.721
	c0-3.459-0.695-6.08-2.094-7.871c-1.398-1.793-3.434-2.695-6.104-2.695s-4.695,0.902-6.084,2.695
	c-1.387,1.791-2.08,4.412-2.08,7.871c0,3.381,0.693,5.957,2.08,7.721C795.866,61.228,797.894,62.111,800.562,62.111 M800.562,69.657
	c-5.314,0-9.541-1.602-12.678-4.811c-3.139-3.209-4.707-7.549-4.707-13.004c0-5.572,1.568-10.008,4.707-13.281
	c3.137-3.287,7.363-4.93,12.678-4.93c5.357,0,9.604,1.645,12.732,4.93c3.125,3.273,4.684,7.709,4.684,13.281
	c0,5.455-1.559,9.795-4.684,13.004C810.165,68.058,805.919,69.657,800.562,69.657z"/>
    <path fill="#85C236" d="M824.198,68.777v-34.23h4.26h4.279v5.51c0.393-0.967,0.895-1.828,1.494-2.588
	c1.982-2.557,4.854-3.836,8.621-3.836c3,0,5.455,1.02,7.375,3.053c0.748,0.77,1.334,1.643,1.771,2.574l1.1-1.791
	c1.857-2.557,4.555-3.836,8.109-3.836c3.693,0,6.574,1.107,8.666,3.309c2.08,2.201,3.127,5.25,3.127,9.146v22.689h-4.473h-4.502
	V48.667c0-2.557-0.416-4.445-1.25-5.68c-0.842-1.225-2.133-1.836-3.881-1.836c-1.879,0-3.32,0.578-4.314,1.748
	c-0.99,1.16-1.482,2.836-1.482,5.014v20.865h-4.471h-4.504V47.195c0-2.061-0.438-3.574-1.311-4.563
	c-0.877-0.988-2.211-1.482-4.025-1.482c-1.805,0-3.191,0.58-4.162,1.75c-0.971,1.16-1.451,2.834-1.451,5.014v20.863h-4.471H824.198z
	"/>
    <path fill="#FFFFFF" d="M214.06,56.471V19.89h-4.726v-9.174c0.255-0.139,0.504-0.285,0.75-0.438c2.58-1.604,4.531-3.888,5.866-6.87
	h7.491v53.064h-4.171H214.06z"/>
</svg>
