<?xml version="1.0" encoding="UTF-8" standalone="no"?>
<!-- Created with Inkscape (http://www.inkscape.org/) -->

<svg
    xmlns:inkscape="http://www.inkscape.org/namespaces/inkscape"
    xmlns:sodipodi="http://sodipodi.sourceforge.net/DTD/sodipodi-0.dtd"
    version="1.1"
    id="svg212"
    width="250"
    height="60"
    viewBox="0 0 250 59.999999"
    sodipodi:docname="logo-obamacare.svg"
    inkscape:version="1.2.2 (b0a84865, 2022-12-01)"
    xmlns="http://www.w3.org/2000/svg"
>
    <defs
        id="defs216">
        <clipPath
            clipPathUnits="userSpaceOnUse"
            id="clipPath230">
            <path
                d="M 4721.56,4721.56 H 7.15234 V 7.15234 H 4721.56 Z"
                clip-rule="evenodd"
                id="path228"/>
        </clipPath>
    </defs>
    <sodipodi:namedview
        id="namedview214"
        pagecolor="#ffffff"
        bordercolor="#000000"
        borderopacity="0.25"
        inkscape:showpageshadow="2"
        inkscape:pageopacity="0.0"
        inkscape:pagecheckerboard="0"
        inkscape:deskcolor="#d1d1d1"
        showgrid="false"
        inkscape:zoom="2.9936574"
        inkscape:cx="108.72988"
        inkscape:cy="15.1988"
        inkscape:window-width="1496"
        inkscape:window-height="905"
        inkscape:window-x="0"
        inkscape:window-y="34"
        inkscape:window-maximized="1"
        inkscape:current-layer="g220">
        <inkscape:page
            x="0"
            y="0"
            id="page218"
            width="250"
            height="60"/>
    </sodipodi:namedview>
    <g
        id="g220"
        inkscape:groupmode="layer"
        inkscape:label="Page 1"
        transform="matrix(1.3333333,0,0,-1.3333333,-54.807618,380.11237)">
        <g
            id="g226"
            clip-path="url(#clipPath230)"
            inkscape:label="background"
            style="display:none"
            transform="matrix(0.0397745,0,0,0.00965683,40.814632,239.7521)">
            <path
                d="m 3936.63,2345.78 c 0,-38.52 31.23,-69.75 69.75,-69.75 38.52,0 69.75,31.23 69.75,69.75 0,38.52 -31.23,69.74 -69.75,69.74 -38.52,0 -69.75,-31.22 -69.75,-69.74"
                style="fill:#398bc6;fill-opacity:1;fill-rule:evenodd;stroke:none"
                id="path232"/>
            <path
                d="m 3959.88,2345.78 c 0,25.68 20.82,46.5 46.5,46.5 25.68,0 46.5,-20.82 46.5,-46.5 0,-25.68 -20.82,-46.5 -46.5,-46.5 -25.68,0 -46.5,20.82 -46.5,46.5 z m -69.75,0 c 0,-64.2 52.05,-116.25 116.25,-116.25 64.2,0 116.25,52.05 116.25,116.25 0,64.2 -52.05,116.24 -116.25,116.24 -64.2,0 -116.25,-52.04 -116.25,-116.24"
                style="fill:#398bc6;fill-opacity:1;fill-rule:evenodd;stroke:none"
                id="path234"/>
            <path
                d="m 3913.38,2345.78 c 0,51.36 41.64,92.99 93,92.99 51.36,0 93,-41.63 93,-92.99 0,-51.36 -41.64,-93 -93,-93 -51.36,0 -93,41.64 -93,93 z m -69.75,0 c 0,-89.88 72.87,-162.74 162.75,-162.74 89.88,0 162.75,72.86 162.75,162.74 0,89.88 -72.87,162.74 -162.75,162.74 -89.88,0 -162.75,-72.86 -162.75,-162.74"
                style="fill:#3889c4;fill-opacity:1;fill-rule:evenodd;stroke:none"
                id="path236"/>
            <path
                d="m 3866.88,2345.78 c 0,77.04 62.46,139.49 139.5,139.49 77.04,0 139.5,-62.45 139.5,-139.49 0,-77.05 -62.46,-139.5 -139.5,-139.5 -77.04,0 -139.5,62.45 -139.5,139.5 z m -69.75,0 c 0,-115.57 93.69,-209.24 209.25,-209.24 115.56,0 209.25,93.67 209.25,209.24 0,115.56 -93.69,209.24 -209.25,209.24 -115.56,0 -209.25,-93.68 -209.25,-209.24"
                style="fill:#3888c3;fill-opacity:1;fill-rule:evenodd;stroke:none"
                id="path238"/>
            <path
                d="m 3820.38,2345.78 c 0,102.72 83.28,185.99 186,185.99 102.72,0 186,-83.27 186,-185.99 0,-102.72 -83.28,-185.99 -186,-185.99 -102.72,0 -186,83.27 -186,185.99 z m -69.75,0 c 0,-141.24 114.51,-255.74 255.75,-255.74 141.24,0 255.74,114.5 255.74,255.74 0,141.24 -114.5,255.74 -255.74,255.74 -141.24,0 -255.75,-114.5 -255.75,-255.74"
                style="fill:#3786c1;fill-opacity:1;fill-rule:evenodd;stroke:none"
                id="path240"/>
            <path
                d="m 3773.88,2345.78 c 0,128.4 104.1,232.49 232.5,232.49 128.4,0 232.49,-104.09 232.49,-232.49 0,-128.4 -104.09,-232.49 -232.49,-232.49 -128.4,0 -232.5,104.09 -232.5,232.49 z m -69.74,0 c 0,-166.92 135.32,-302.24 302.24,-302.24 166.92,0 302.24,135.32 302.24,302.24 0,166.92 -135.32,302.24 -302.24,302.24 -166.92,0 -302.24,-135.32 -302.24,-302.24"
                style="fill:#3684bf;fill-opacity:1;fill-rule:evenodd;stroke:none"
                id="path242"/>
            <path
                d="m 3727.39,2345.78 c 0,154.08 124.91,278.99 278.99,278.99 154.08,0 278.99,-124.91 278.99,-278.99 0,-154.08 -124.91,-278.99 -278.99,-278.99 -154.08,0 -278.99,124.91 -278.99,278.99 z m -69.75,0 c 0,-192.61 156.13,-348.74 348.74,-348.74 192.6,0 348.74,156.13 348.74,348.74 0,192.6 -156.14,348.74 -348.74,348.74 -192.61,0 -348.74,-156.14 -348.74,-348.74"
                style="fill:#3783bd;fill-opacity:1;fill-rule:evenodd;stroke:none"
                id="path244"/>
            <path
                d="m 3680.89,2345.78 c 0,179.76 145.72,325.49 325.49,325.49 179.76,0 325.49,-145.73 325.49,-325.49 0,-179.76 -145.73,-325.49 -325.49,-325.49 -179.77,0 -325.49,145.73 -325.49,325.49 z m -69.75,0 c 0,-218.29 176.95,-395.24 395.24,-395.24 218.28,0 395.24,176.95 395.24,395.24 0,218.28 -176.96,395.24 -395.24,395.24 -218.29,0 -395.24,-176.96 -395.24,-395.24"
                style="fill:#3681bb;fill-opacity:1;fill-rule:evenodd;stroke:none"
                id="path246"/>
            <path
                d="m 3634.39,2345.78 c 0,205.44 166.55,371.99 371.99,371.99 205.44,0 371.99,-166.55 371.99,-371.99 0,-205.44 -166.55,-371.99 -371.99,-371.99 -205.44,0 -371.99,166.55 -371.99,371.99 z m -69.75,0 c 0,-243.97 197.77,-441.74 441.74,-441.74 243.96,0 441.74,197.77 441.74,441.74 0,243.96 -197.78,441.74 -441.74,441.74 -243.97,0 -441.74,-197.78 -441.74,-441.74"
                style="fill:#3580b9;fill-opacity:1;fill-rule:evenodd;stroke:none"
                id="path248"/>
            <path
                d="m 3587.89,2345.78 c 0,231.13 187.36,418.49 418.49,418.49 231.12,0 418.49,-187.36 418.49,-418.49 0,-231.13 -187.37,-418.49 -418.49,-418.49 -231.13,0 -418.49,187.36 -418.49,418.49 z m -69.75,0 c 0,-269.65 218.59,-488.24 488.24,-488.24 269.64,0 488.24,218.59 488.24,488.24 0,269.65 -218.6,488.24 -488.24,488.24 -269.65,0 -488.24,-218.59 -488.24,-488.24"
                style="fill:#347eb7;fill-opacity:1;fill-rule:evenodd;stroke:none"
                id="path250"/>
            <path
                d="m 3541.39,2345.78 c 0,256.8 208.18,464.99 464.99,464.99 256.8,0 464.99,-208.19 464.99,-464.99 0,-256.81 -208.19,-464.99 -464.99,-464.99 -256.81,0 -464.99,208.18 -464.99,464.99 z m -69.75,0 c 0,-295.33 239.41,-534.74 534.74,-534.74 295.32,0 534.74,239.41 534.74,534.74 0,295.32 -239.42,534.74 -534.74,534.74 -295.33,0 -534.74,-239.42 -534.74,-534.74"
                style="fill:#347cb5;fill-opacity:1;fill-rule:evenodd;stroke:none"
                id="path252"/>
            <path
                d="m 3494.89,2345.78 c 0,282.49 229,511.49 511.49,511.49 282.49,0 511.49,-229 511.49,-511.49 0,-282.49 -229,-511.49 -511.49,-511.49 -282.49,0 -511.49,229 -511.49,511.49 z m -69.75,0 c 0,-321.01 260.23,-581.24 581.24,-581.24 321.01,0 581.23,260.23 581.23,581.24 0,321.01 -260.22,581.23 -581.23,581.23 -321.01,0 -581.24,-260.22 -581.24,-581.23"
                style="fill:#337bb3;fill-opacity:1;fill-rule:evenodd;stroke:none"
                id="path254"/>
            <path
                d="m 3448.39,2345.78 c 0,308.17 249.82,557.99 557.99,557.99 308.17,0 557.99,-249.82 557.99,-557.99 0,-308.17 -249.82,-557.99 -557.99,-557.99 -308.17,0 -557.99,249.82 -557.99,557.99 z m -69.75,0 c 0,-346.69 281.05,-627.73 627.74,-627.73 346.69,0 627.73,281.04 627.73,627.73 0,346.69 -281.04,627.73 -627.73,627.73 -346.69,0 -627.74,-281.04 -627.74,-627.73"
                style="fill:#3279b1;fill-opacity:1;fill-rule:evenodd;stroke:none"
                id="path256"/>
            <path
                d="m 3401.89,2345.78 c 0,333.85 270.64,604.48 604.49,604.48 333.85,0 604.48,-270.63 604.48,-604.48 0,-333.85 -270.63,-604.49 -604.48,-604.49 -333.85,0 -604.49,270.64 -604.49,604.49 z m -69.74,0 c 0,-372.37 301.86,-674.23 674.23,-674.23 372.37,0 674.23,301.86 674.23,674.23 0,372.36 -301.86,674.23 -674.23,674.23 -372.37,0 -674.23,-301.87 -674.23,-674.23"
                style="fill:#3278b0;fill-opacity:1;fill-rule:evenodd;stroke:none"
                id="path258"/>
            <path
                d="m 3355.4,2345.78 c 0,359.52 291.45,650.98 650.98,650.98 359.53,0 650.98,-291.46 650.98,-650.98 0,-359.53 -291.45,-650.98 -650.98,-650.98 -359.53,0 -650.98,291.45 -650.98,650.98 z m -69.75,0 c 0,-398.05 322.68,-720.73 720.73,-720.73 398.05,0 720.73,322.68 720.73,720.73 0,398.05 -322.68,720.73 -720.73,720.73 -398.05,0 -720.73,-322.68 -720.73,-720.73"
                style="fill:#3176ae;fill-opacity:1;fill-rule:evenodd;stroke:none"
                id="path260"/>
            <path
                d="m 3308.9,2345.78 c 0,385.21 312.27,697.48 697.48,697.48 385.21,0 697.48,-312.27 697.48,-697.48 0,-385.21 -312.27,-697.48 -697.48,-697.48 -385.21,0 -697.48,312.27 -697.48,697.48 z m -69.75,0 c 0,-423.73 343.5,-767.23 767.23,-767.23 423.73,0 767.23,343.5 767.23,767.23 0,423.73 -343.5,767.23 -767.23,767.23 -423.73,0 -767.23,-343.5 -767.23,-767.23"
                style="fill:#3075ac;fill-opacity:1;fill-rule:evenodd;stroke:none"
                id="path262"/>
            <path
                d="m 3262.4,2345.78 c 0,410.89 333.09,743.98 743.98,743.98 410.89,0 743.98,-333.09 743.98,-743.98 0,-410.89 -333.09,-743.98 -743.98,-743.98 -410.89,0 -743.98,333.09 -743.98,743.98 z m -69.75,0 c 0,-449.41 364.32,-813.73 813.73,-813.73 449.41,0 813.73,364.32 813.73,813.73 0,449.41 -364.32,813.73 -813.73,813.73 -449.41,0 -813.73,-364.32 -813.73,-813.73"
                style="fill:#3073aa;fill-opacity:1;fill-rule:evenodd;stroke:none"
                id="path264"/>
            <path
                d="m 3215.9,2345.78 c 0,436.57 353.91,790.48 790.48,790.48 436.57,0 790.48,-353.91 790.48,-790.48 0,-436.57 -353.91,-790.48 -790.48,-790.48 -436.57,0 -790.48,353.91 -790.48,790.48 z m -69.75,0 c 0,-475.09 385.14,-860.23 860.23,-860.23 475.09,0 860.23,385.14 860.23,860.23 0,475.09 -385.14,860.22 -860.23,860.22 -475.09,0 -860.23,-385.13 -860.23,-860.22"
                style="fill:#2f71a8;fill-opacity:1;fill-rule:evenodd;stroke:none"
                id="path266"/>
            <path
                d="m 3169.4,2345.78 c 0,462.25 374.73,836.98 836.98,836.98 462.25,0 836.98,-374.73 836.98,-836.98 0,-462.25 -374.73,-836.98 -836.98,-836.98 -462.25,0 -836.98,374.73 -836.98,836.98 z m -69.75,0 c 0,-500.77 405.96,-906.73 906.73,-906.73 500.77,0 906.72,405.96 906.72,906.73 0,500.77 -405.95,906.72 -906.72,906.72 -500.77,0 -906.73,-405.95 -906.73,-906.72"
                style="fill:#2e70a7;fill-opacity:1;fill-rule:evenodd;stroke:none"
                id="path268"/>
            <path
                d="m 3122.9,2345.78 c 0,487.93 395.55,883.47 883.48,883.47 487.93,0 883.48,-395.54 883.48,-883.47 0,-487.93 -395.55,-883.48 -883.48,-883.48 -487.93,0 -883.48,395.55 -883.48,883.48 z m -69.75,0 c 0,-526.45 426.78,-953.23 953.23,-953.23 526.45,0 953.22,426.78 953.22,953.23 0,526.45 -426.77,953.22 -953.22,953.22 -526.45,0 -953.23,-426.77 -953.23,-953.22"
                style="fill:#2e6ea5;fill-opacity:1;fill-rule:evenodd;stroke:none"
                id="path270"/>
            <path
                d="m 3076.4,2345.78 c 0,513.61 416.37,929.97 929.98,929.97 513.61,0 929.97,-416.36 929.97,-929.97 0,-513.61 -416.36,-929.98 -929.97,-929.98 -513.61,0 -929.98,416.37 -929.98,929.98 z m -69.74,0 c 0,-552.14 447.59,-999.73 999.72,-999.73 552.13,0 999.72,447.59 999.72,999.73 0,552.13 -447.59,999.72 -999.72,999.72 -552.13,0 -999.72,-447.59 -999.72,-999.72"
                style="fill:#2d6da3;fill-opacity:1;fill-rule:evenodd;stroke:none"
                id="path272"/>
            <path
                d="m 3029.91,2345.78 c 0,539.29 437.18,976.47 976.47,976.47 539.29,0 976.47,-437.18 976.47,-976.47 0,-539.29 -437.18,-976.48 -976.47,-976.48 -539.29,0 -976.47,437.19 -976.47,976.48 z m -69.75,0 c 0,-577.82 468.41,-1046.23 1046.22,-1046.23 577.81,0 1046.22,468.41 1046.22,1046.23 0,577.81 -468.41,1046.22 -1046.22,1046.22 -577.81,0 -1046.22,-468.41 -1046.22,-1046.22"
                style="fill:#2d6ca2;fill-opacity:1;fill-rule:evenodd;stroke:none"
                id="path274"/>
            <path
                d="m 2983.41,2345.78 c 0,564.97 458,1022.97 1022.97,1022.97 564.97,0 1022.97,-458 1022.97,-1022.97 0,-564.98 -458,-1022.98 -1022.97,-1022.98 -564.97,0 -1022.97,458 -1022.97,1022.98 z m -69.75,0 c 0,-603.49 489.23,-1092.72 1092.72,-1092.72 603.49,0 1092.72,489.23 1092.72,1092.72 0,603.49 -489.23,1092.72 -1092.72,1092.72 -603.49,0 -1092.72,-489.23 -1092.72,-1092.72"
                style="fill:#2c6aa0;fill-opacity:1;fill-rule:evenodd;stroke:none"
                id="path276"/>
            <path
                d="m 2936.91,2345.78 c 0,590.65 478.82,1069.47 1069.47,1069.47 590.65,0 1069.47,-478.82 1069.47,-1069.47 0,-590.65 -478.82,-1069.48 -1069.47,-1069.48 -590.65,0 -1069.47,478.83 -1069.47,1069.48 z m -69.75,0 c 0,-629.17 510.04,-1139.22 1139.22,-1139.22 629.17,0 1139.22,510.05 1139.22,1139.22 0,629.17 -510.05,1139.22 -1139.22,1139.22 -629.18,0 -1139.22,-510.05 -1139.22,-1139.22"
                style="fill:#2b699e;fill-opacity:1;fill-rule:evenodd;stroke:none"
                id="path278"/>
            <path
                d="m 2890.41,2345.78 c 0,616.33 499.64,1115.97 1115.97,1115.97 616.33,0 1115.97,-499.64 1115.97,-1115.97 0,-616.33 -499.64,-1115.97 -1115.97,-1115.97 -616.33,0 -1115.97,499.64 -1115.97,1115.97 z m -69.75,0 c 0,-654.85 530.86,-1185.72 1185.72,-1185.72 654.85,0 1185.72,530.87 1185.72,1185.72 0,654.85 -530.87,1185.72 -1185.72,1185.72 -654.86,0 -1185.72,-530.87 -1185.72,-1185.72"
                style="fill:#2b689d;fill-opacity:1;fill-rule:evenodd;stroke:none"
                id="path280"/>
            <path
                d="m 2843.91,2345.78 c 0,642.01 520.46,1162.47 1162.47,1162.47 642.01,0 1162.47,-520.46 1162.47,-1162.47 0,-642.01 -520.46,-1162.47 -1162.47,-1162.47 -642.01,0 -1162.47,520.46 -1162.47,1162.47 z m -69.75,0 c 0,-680.54 551.68,-1232.22 1232.22,-1232.22 680.53,0 1232.22,551.68 1232.22,1232.22 0,680.53 -551.69,1232.22 -1232.22,1232.22 -680.54,0 -1232.22,-551.69 -1232.22,-1232.22"
                style="fill:#2a669b;fill-opacity:1;fill-rule:evenodd;stroke:none"
                id="path282"/>
            <path
                d="m 2797.41,2345.78 c 0,667.69 541.27,1208.97 1208.97,1208.97 667.69,0 1208.97,-541.28 1208.97,-1208.97 0,-667.7 -541.28,-1208.97 -1208.97,-1208.97 -667.7,0 -1208.97,541.27 -1208.97,1208.97 z m -69.75,0 c 0,-706.22 572.5,-1278.72 1278.72,-1278.72 706.21,0 1278.71,572.5 1278.71,1278.72 0,706.21 -572.5,1278.71 -1278.71,1278.71 -706.22,0 -1278.72,-572.5 -1278.72,-1278.71"
                style="fill:#2a6499;fill-opacity:1;fill-rule:evenodd;stroke:none"
                id="path284"/>
            <path
                d="m 2750.91,2345.78 c 0,693.37 562.09,1255.47 1255.47,1255.47 693.37,0 1255.46,-562.1 1255.46,-1255.47 0,-693.37 -562.09,-1255.47 -1255.46,-1255.47 -693.38,0 -1255.47,562.1 -1255.47,1255.47 z m -69.75,0 c 0,-731.9 593.32,-1325.21 1325.22,-1325.21 731.89,0 1325.21,593.31 1325.21,1325.21 0,731.89 -593.32,1325.21 -1325.21,1325.21 -731.9,0 -1325.22,-593.32 -1325.22,-1325.21"
                style="fill:#2a6398;fill-opacity:1;fill-rule:evenodd;stroke:none"
                id="path286"/>
            <path
                d="m 2704.41,2345.78 c 0,719.06 582.91,1301.96 1301.97,1301.96 719.05,0 1301.96,-582.9 1301.96,-1301.96 0,-719.06 -582.91,-1301.97 -1301.96,-1301.97 -719.06,0 -1301.97,582.91 -1301.97,1301.97 z m -69.75,0 c 0,-757.58 614.14,-1371.714 1371.72,-1371.714 757.58,0 1371.71,614.134 1371.71,1371.714 0,757.58 -614.13,1371.71 -1371.71,1371.71 -757.58,0 -1371.72,-614.13 -1371.72,-1371.71"
                style="fill:#296296;fill-opacity:1;fill-rule:evenodd;stroke:none"
                id="path288"/>
            <path
                d="m 2657.91,2345.78 c 0,744.74 603.73,1348.46 1348.47,1348.46 744.73,0 1348.46,-603.72 1348.46,-1348.46 0,-744.74 -603.73,-1348.464 -1348.46,-1348.464 -744.74,0 -1348.47,603.724 -1348.47,1348.464 z m -69.74,0 c 0,-783.26 634.95,-1418.214 1418.21,-1418.214 783.25,0 1418.21,634.954 1418.21,1418.214 0,783.26 -634.96,1418.21 -1418.21,1418.21 -783.26,0 -1418.21,-634.95 -1418.21,-1418.21"
                style="fill:#296194;fill-opacity:1;fill-rule:evenodd;stroke:none"
                id="path290"/>
            <path
                d="m 2611.42,2345.78 c 0,770.42 624.54,1394.96 1394.96,1394.96 770.42,0 1394.96,-624.54 1394.96,-1394.96 0,-770.42 -624.54,-1394.964 -1394.96,-1394.964 -770.42,0 -1394.96,624.544 -1394.96,1394.964 z m -69.75,0 c 0,-808.94 655.77,-1464.714 1464.71,-1464.714 808.94,0 1464.71,655.774 1464.71,1464.714 0,808.93 -655.77,1464.71 -1464.71,1464.71 -808.94,0 -1464.71,-655.78 -1464.71,-1464.71"
                style="fill:#285f92;fill-opacity:1;fill-rule:evenodd;stroke:none"
                id="path292"/>
            <path
                d="m 2564.92,2345.78 c 0,796.1 645.36,1441.46 1441.46,1441.46 796.1,0 1441.46,-645.36 1441.46,-1441.46 0,-796.1 -645.36,-1441.464 -1441.46,-1441.464 -796.1,0 -1441.46,645.364 -1441.46,1441.464 z m -69.75,0 c 0,-834.62 676.59,-1511.21 1511.21,-1511.21 834.62,0 1511.21,676.59 1511.21,1511.21 0,834.62 -676.59,1511.21 -1511.21,1511.21 -834.62,0 -1511.21,-676.59 -1511.21,-1511.21"
                style="fill:#275e91;fill-opacity:1;fill-rule:evenodd;stroke:none"
                id="path294"/>
            <path
                d="m 2518.42,2345.78 c 0,821.77 666.18,1487.96 1487.96,1487.96 821.78,0 1487.96,-666.19 1487.96,-1487.96 0,-821.78 -666.18,-1487.96 -1487.96,-1487.96 -821.78,0 -1487.96,666.18 -1487.96,1487.96 z m -69.75,0 c 0,-860.3 697.41,-1557.71 1557.71,-1557.71 860.3,0 1557.71,697.41 1557.71,1557.71 0,860.3 -697.41,1557.71 -1557.71,1557.71 -860.3,0 -1557.71,-697.41 -1557.71,-1557.71"
                style="fill:#275d8f;fill-opacity:1;fill-rule:evenodd;stroke:none"
                id="path296"/>
            <path
                d="m 2471.92,2345.78 c 0,847.45 687,1534.46 1534.46,1534.46 847.46,0 1534.46,-687.01 1534.46,-1534.46 0,-847.46 -687,-1534.46 -1534.46,-1534.46 -847.46,0 -1534.46,687 -1534.46,1534.46 z m -69.75,0 c 0,-885.98 718.23,-1604.21 1604.21,-1604.21 885.98,0 1604.21,718.23 1604.21,1604.21 0,885.98 -718.23,1604.2 -1604.21,1604.2 -885.98,0 -1604.21,-718.22 -1604.21,-1604.2"
                style="fill:#265b8e;fill-opacity:1;fill-rule:evenodd;stroke:none"
                id="path298"/>
            <path
                d="m 2425.42,2345.78 c 0,873.14 707.82,1580.96 1580.96,1580.96 873.14,0 1580.96,-707.82 1580.96,-1580.96 0,-873.14 -707.82,-1580.96 -1580.96,-1580.96 -873.14,0 -1580.96,707.82 -1580.96,1580.96 z m -69.75,0 c 0,-911.66 739.05,-1650.706 1650.71,-1650.706 911.66,0 1650.71,739.046 1650.71,1650.706 0,911.66 -739.05,1650.7 -1650.71,1650.7 -911.66,0 -1650.71,-739.04 -1650.71,-1650.7"
                style="fill:#265a8d;fill-opacity:1;fill-rule:evenodd;stroke:none"
                id="path300"/>
            <path
                d="m 2378.92,2345.78 c 0,898.82 728.64,1627.45 1627.46,1627.45 898.82,0 1627.46,-728.63 1627.46,-1627.45 0,-898.82 -728.64,-1627.46 -1627.46,-1627.46 -898.82,0 -1627.46,728.64 -1627.46,1627.46 z m -69.74,0 c 0,-937.34 759.86,-1697.206 1697.2,-1697.206 937.34,0 1697.2,759.866 1697.2,1697.206 0,937.34 -759.86,1697.2 -1697.2,1697.2 -937.34,0 -1697.2,-759.86 -1697.2,-1697.2"
                style="fill:#25598b;fill-opacity:1;fill-rule:evenodd;stroke:none"
                id="path302"/>
            <path
                d="m 2332.43,2345.78 c 0,924.5 749.45,1673.95 1673.95,1673.95 924.5,0 1673.96,-749.45 1673.96,-1673.95 0,-924.5 -749.46,-1673.956 -1673.96,-1673.956 -924.5,0 -1673.95,749.456 -1673.95,1673.956 z m -69.75,0 c 0,-963.02 780.68,-1743.706 1743.7,-1743.706 963.02,0 1743.7,780.686 1743.7,1743.706 0,963.02 -780.68,1743.7 -1743.7,1743.7 -963.02,0 -1743.7,-780.68 -1743.7,-1743.7"
                style="fill:#255889;fill-opacity:1;fill-rule:evenodd;stroke:none"
                id="path304"/>
            <path
                d="m 2285.93,2345.78 c 0,950.18 770.27,1720.45 1720.45,1720.45 950.18,0 1720.45,-770.27 1720.45,-1720.45 0,-950.18 -770.27,-1720.456 -1720.45,-1720.456 -950.18,0 -1720.45,770.276 -1720.45,1720.456 z m -69.75,0 c 0,-988.7 801.5,-1790.206 1790.2,-1790.206 988.7,0 1790.2,801.506 1790.2,1790.206 0,988.7 -801.5,1790.2 -1790.2,1790.2 -988.7,0 -1790.2,-801.5 -1790.2,-1790.2"
                style="fill:#245688;fill-opacity:1;fill-rule:evenodd;stroke:none"
                id="path306"/>
            <path
                d="m 2239.43,2345.78 c 0,975.86 791.09,1766.95 1766.95,1766.95 975.86,0 1766.95,-791.09 1766.95,-1766.95 0,-975.86 -791.09,-1766.956 -1766.95,-1766.956 -975.86,0 -1766.95,791.096 -1766.95,1766.956 z m -69.75,0 c 0,-1014.39 822.32,-1836.702 1836.7,-1836.702 1014.38,0 1836.7,822.312 1836.7,1836.702 0,1014.38 -822.32,1836.7 -1836.7,1836.7 -1014.38,0 -1836.7,-822.32 -1836.7,-1836.7"
                style="fill:#245687;fill-opacity:1;fill-rule:evenodd;stroke:none"
                id="path308"/>
            <path
                d="m 2192.93,2345.78 c 0,1001.54 811.91,1813.45 1813.45,1813.45 1001.54,0 1813.45,-811.91 1813.45,-1813.45 0,-1001.55 -811.91,-1813.456 -1813.45,-1813.456 -1001.54,0 -1813.45,811.906 -1813.45,1813.456 z m -69.75,0 c 0,-1040.07 843.14,-1883.202 1883.2,-1883.202 1040.06,0 1883.2,843.132 1883.2,1883.202 0,1040.06 -843.14,1883.2 -1883.2,1883.2 -1040.06,0 -1883.2,-843.14 -1883.2,-1883.2"
                style="fill:#235485;fill-opacity:1;fill-rule:evenodd;stroke:none"
                id="path310"/>
            <path
                d="m 2146.43,2345.78 c 0,1027.22 832.73,1859.95 1859.95,1859.95 1027.22,0 1859.95,-832.73 1859.95,-1859.95 0,-1027.22 -832.73,-1859.952 -1859.95,-1859.952 -1027.22,0 -1859.95,832.732 -1859.95,1859.952 z m -69.75,0 c 0,-1065.74 863.95,-1929.702 1929.7,-1929.702 1065.74,0 1929.7,863.962 1929.7,1929.702 0,1065.74 -863.96,1929.7 -1929.7,1929.7 -1065.75,0 -1929.7,-863.96 -1929.7,-1929.7"
                style="fill:#235383;fill-opacity:1;fill-rule:evenodd;stroke:none"
                id="path312"/>
            <path
                d="m 2099.93,2345.78 c 0,1052.9 853.55,1906.45 1906.45,1906.45 1052.9,0 1906.45,-853.55 1906.45,-1906.45 0,-1052.9 -853.55,-1906.452 -1906.45,-1906.452 -1052.9,0 -1906.45,853.552 -1906.45,1906.452 z m -69.75,0 c 0,-1091.42 884.78,-1976.202 1976.2,-1976.202 1091.42,0 1976.19,884.782 1976.19,1976.202 0,1091.42 -884.77,1976.2 -1976.19,1976.2 -1091.42,0 -1976.2,-884.78 -1976.2,-1976.2"
                style="fill:#225182;fill-opacity:1;fill-rule:evenodd;stroke:none"
                id="path314"/>
            <path
                d="m 2053.43,2345.78 c 0,1078.58 874.37,1952.95 1952.95,1952.95 1078.58,0 1952.94,-874.37 1952.94,-1952.95 0,-1078.58 -874.36,-1952.952 -1952.94,-1952.952 -1078.58,0 -1952.95,874.372 -1952.95,1952.952 z m -69.75,0 c 0,-1117.11 905.59,-2022.698 2022.7,-2022.698 1117.1,0 2022.69,905.588 2022.69,2022.698 0,1117.1 -905.59,2022.69 -2022.69,2022.69 -1117.11,0 -2022.7,-905.59 -2022.7,-2022.69"
                style="fill:#225181;fill-opacity:1;fill-rule:evenodd;stroke:none"
                id="path316"/>
            <path
                d="m 2006.93,2345.78 c 0,1104.26 895.18,1999.44 1999.45,1999.44 1104.26,0 1999.44,-895.18 1999.44,-1999.44 0,-1104.26 -895.18,-1999.448 -1999.44,-1999.448 -1104.27,0 -1999.45,895.188 -1999.45,1999.448 z m -69.75,0 c 0,-1142.79 926.41,-2069.198 2069.2,-2069.198 1142.78,0 2069.19,926.408 2069.19,2069.198 0,1142.78 -926.41,2069.19 -2069.19,2069.19 -1142.79,0 -2069.2,-926.41 -2069.2,-2069.19"
                style="fill:#214f7f;fill-opacity:1;fill-rule:evenodd;stroke:none"
                id="path318"/>
            <path
                d="m 1960.43,2345.78 c 0,1129.94 916.01,2045.94 2045.95,2045.94 1129.94,0 2045.94,-916 2045.94,-2045.94 0,-1129.94 -916,-2045.948 -2045.94,-2045.948 -1129.94,0 -2045.95,916.008 -2045.95,2045.948 z m -69.75,0 c 0,-1168.47 947.23,-2115.694 2115.7,-2115.694 1168.46,0 2115.69,947.224 2115.69,2115.694 0,1168.46 -947.23,2115.69 -2115.69,2115.69 -1168.47,0 -2115.7,-947.23 -2115.7,-2115.69"
                style="fill:#214e7e;fill-opacity:1;fill-rule:evenodd;stroke:none"
                id="path320"/>
            <path
                d="m 1913.93,2345.78 c 0,1155.63 936.82,2092.44 2092.45,2092.44 1155.62,0 2092.44,-936.81 2092.44,-2092.44 0,-1155.63 -936.82,-2092.448 -2092.44,-2092.448 -1155.63,0 -2092.45,936.818 -2092.45,2092.448 z m -69.75,0 c 0,-1194.15 968.05,-2162.194 2162.2,-2162.194 1194.14,0 2162.19,968.044 2162.19,2162.194 0,1194.15 -968.05,2162.19 -2162.19,2162.19 -1194.15,0 -2162.2,-968.04 -2162.2,-2162.19"
                style="fill:#214e7d;fill-opacity:1;fill-rule:evenodd;stroke:none"
                id="path322"/>
            <path
                d="m 1867.43,2345.78 c 0,1181.3 957.64,2138.94 2138.95,2138.94 1181.3,0 2138.94,-957.64 2138.94,-2138.94 0,-1181.31 -957.64,-2138.944 -2138.94,-2138.944 -1181.31,0 -2138.95,957.634 -2138.95,2138.944 z m -69.74,0 c 0,-1219.83 988.86,-2208.69 2208.69,-2208.69 1219.82,0 2208.69,988.86 2208.69,2208.69 0,1219.82 -988.87,2208.69 -2208.69,2208.69 -1219.83,0 -2208.69,-988.87 -2208.69,-2208.69"
                style="fill:#214d7c;fill-opacity:1;fill-rule:evenodd;stroke:none"
                id="path324"/>
            <path
                d="m 1820.94,2345.78 c 0,1206.99 978.45,2185.44 2185.44,2185.44 1206.99,0 2185.44,-978.45 2185.44,-2185.44 0,-1206.99 -978.45,-2185.444 -2185.44,-2185.444 -1206.99,0 -2185.44,978.454 -2185.44,2185.444 z m -69.75,0 c 0,-1245.51 1009.68,-2255.1902 2255.19,-2255.1902 1245.51,0 2255.19,1009.6802 2255.19,2255.1902 0,1245.51 -1009.68,2255.19 -2255.19,2255.19 -1245.51,0 -2255.19,-1009.68 -2255.19,-2255.19"
                style="fill:#214d7c;fill-opacity:1;fill-rule:evenodd;stroke:none"
                id="path326"/>
            <path
                d="m 1774.44,2345.78 c 0,1232.67 999.27,2231.94 2231.94,2231.94 1232.67,0 2231.94,-999.27 2231.94,-2231.94 0,-1232.67 -999.27,-2231.94 -2231.94,-2231.94 -1232.67,0 -2231.94,999.27 -2231.94,2231.94 z m -69.75,0 c 0,-1271.19 1030.5,-2301.6902 2301.69,-2301.6902 1271.19,0 2301.69,1030.5002 2301.69,2301.6902 0,1271.19 -1030.5,2301.68 -2301.69,2301.68 -1271.19,0 -2301.69,-1030.49 -2301.69,-2301.68"
                style="fill:#214d7b;fill-opacity:1;fill-rule:evenodd;stroke:none"
                id="path328"/>
            <path
                d="m 1727.94,2345.78 c 0,1258.35 1020.09,2278.44 2278.44,2278.44 1258.35,0 2278.44,-1020.09 2278.44,-2278.44 C 6284.82,1087.43 5264.73,67.3398 4006.38,67.3398 2748.03,67.3398 1727.94,1087.43 1727.94,2345.78 Z m -69.75,0 c 0,-1296.87 1051.32,-2348.18625 2348.19,-2348.18625 1296.87,0 2348.19,1051.31625 2348.19,2348.18625 0,1296.86 -1051.32,2348.18 -2348.19,2348.18 -1296.87,0 -2348.19,-1051.32 -2348.19,-2348.18"
                style="fill:#214d7b;fill-opacity:1;fill-rule:evenodd;stroke:none"
                id="path330"/>
            <path
                d="m 1681.44,2345.78 c 0,1284.02 1040.91,2324.93 2324.94,2324.93 1284.03,0 2324.94,-1040.91 2324.94,-2324.93 C 6331.32,1061.75 5290.41,20.8398 4006.38,20.8398 2722.35,20.8398 1681.44,1061.75 1681.44,2345.78 Z m -69.74,0 c 0,-1322.55 1072.13,-2394.6863 2394.68,-2394.6863 1322.55,0 2394.69,1072.1363 2394.69,2394.6863 0,1322.55 -1072.14,2394.68 -2394.69,2394.68 -1322.55,0 -2394.68,-1072.13 -2394.68,-2394.68"
                style="fill:#204c7a;fill-opacity:1;fill-rule:evenodd;stroke:none"
                id="path332"/>
            <path
                d="m 1634.94,2345.78 c 0,1309.71 1061.73,2371.43 2371.44,2371.43 1309.71,0 2371.44,-1061.72 2371.44,-2371.43 0,-1309.71 -1061.73,-2371.4363 -2371.44,-2371.4363 -1309.71,0 -2371.44,1061.7263 -2371.44,2371.4363 z m -69.74,0 c 0,-1348.229 1092.95,-2441.1863 2441.18,-2441.1863 1348.23,0 2441.19,1092.9573 2441.19,2441.1863 0,1348.23 -1092.96,2441.18 -2441.19,2441.18 -1348.23,0 -2441.18,-1092.95 -2441.18,-2441.18"
                style="fill:#204c79;fill-opacity:1;fill-rule:evenodd;stroke:none"
                id="path334"/>
            <path
                d="m 1588.45,2345.78 c 0,1335.39 1082.54,2417.93 2417.93,2417.93 1335.39,0 2417.94,-1082.54 2417.94,-2417.93 0,-1335.39 -1082.55,-2417.9363 -2417.94,-2417.9363 -1335.39,0 -2417.93,1082.5463 -2417.93,2417.9363 z m -69.75,0 c 0,-1373.913 1113.77,-2487.686 2487.68,-2487.686 1373.91,0 2487.68,1113.773 2487.68,2487.686 0,1373.91 -1113.77,2487.68 -2487.68,2487.68 -1373.91,0 -2487.68,-1113.77 -2487.68,-2487.68"
                style="fill:#204c79;fill-opacity:1;fill-rule:evenodd;stroke:none"
                id="path336"/>
            <path
                d="m 1541.95,2345.78 c 0,1361.07 1103.36,2464.43 2464.43,2464.43 1361.07,0 2464.43,-1103.36 2464.43,-2464.43 0,-1361.069 -1103.36,-2464.436 -2464.43,-2464.436 -1361.07,0 -2464.43,1103.367 -2464.43,2464.436 z m -69.75,0 c 0,-1399.592 1134.59,-2534.182 2534.18,-2534.182 1399.59,0 2534.18,1134.59 2534.18,2534.182 0,1399.59 -1134.59,2534.18 -2534.18,2534.18 -1399.59,0 -2534.18,-1134.59 -2534.18,-2534.18"
                style="fill:#204c78;fill-opacity:1;fill-rule:evenodd;stroke:none"
                id="path338"/>
            <path
                d="m 1495.45,2345.78 c 0,1386.75 1124.18,2510.93 2510.93,2510.93 1386.75,0 2510.93,-1124.18 2510.93,-2510.93 0,-1386.753 -1124.18,-2510.932 -2510.93,-2510.932 -1386.75,0 -2510.93,1124.179 -2510.93,2510.932 z m -69.75,0 c 0,-1425.272 1155.41,-2580.682 2580.68,-2580.682 1425.27,0 2580.68,1155.41 2580.68,2580.682 0,1425.27 -1155.41,2580.68 -2580.68,2580.68 -1425.27,0 -2580.68,-1155.41 -2580.68,-2580.68"
                style="fill:#204c78;fill-opacity:1;fill-rule:evenodd;stroke:none"
                id="path340"/>
            <path
                d="m 1448.95,2345.78 c 0,1412.43 1145,2557.43 2557.43,2557.43 1412.43,0 2557.43,-1145 2557.43,-2557.43 0,-1412.432 -1145,-2557.432 -2557.43,-2557.432 -1412.43,0 -2557.43,1145 -2557.43,2557.432 z m -69.75,0 c 0,-1450.956 1176.23,-2627.182 2627.18,-2627.182 1450.95,0 2627.18,1176.226 2627.18,2627.182 0,1450.95 -1176.23,2627.18 -2627.18,2627.18 -1450.95,0 -2627.18,-1176.23 -2627.18,-2627.18"
                style="fill:#204c78;fill-opacity:1;fill-rule:evenodd;stroke:none"
                id="path342"/>
            <path
                d="m 1402.45,2345.78 c 0,1438.11 1165.82,2603.93 2603.93,2603.93 1438.11,0 2603.93,-1165.82 2603.93,-2603.93 0,-1438.112 -1165.82,-2603.932 -2603.93,-2603.932 -1438.11,0 -2603.93,1165.82 -2603.93,2603.932 z m -69.75,0 c 0,-1476.632 1197.05,-2673.678 2673.68,-2673.678 1476.63,0 2673.68,1197.046 2673.68,2673.678 0,1476.63 -1197.05,2673.68 -2673.68,2673.68 -1476.63,0 -2673.68,-1197.05 -2673.68,-2673.68"
                style="fill:#204b77;fill-opacity:1;fill-rule:evenodd;stroke:none"
                id="path344"/>
            <path
                d="m 1355.95,2345.78 c 0,1463.79 1186.64,2650.43 2650.43,2650.43 1463.79,0 2650.43,-1186.64 2650.43,-2650.43 0,-1463.792 -1186.64,-2650.432 -2650.43,-2650.432 -1463.79,0 -2650.43,1186.64 -2650.43,2650.432 z m -69.75,0 c 0,-1502.315 1217.87,-2720.178 2720.18,-2720.178 1502.31,0 2720.18,1217.863 2720.18,2720.178 0,1502.31 -1217.87,2720.18 -2720.18,2720.18 -1502.31,0 -2720.18,-1217.87 -2720.18,-2720.18"
                style="fill:#204b76;fill-opacity:1;fill-rule:evenodd;stroke:none"
                id="path346"/>
            <path
                d="m 1309.45,2345.78 c 0,1489.47 1207.46,2696.93 2696.93,2696.93 1489.47,0 2696.92,-1207.46 2696.92,-2696.93 0,-1489.475 -1207.45,-2696.928 -2696.92,-2696.928 -1489.47,0 -2696.93,1207.453 -2696.93,2696.928 z m -69.75,0 c 0,-1527.995 1238.69,-2766.678 2766.68,-2766.678 1527.99,0 2766.67,1238.683 2766.67,2766.678 0,1527.99 -1238.68,2766.68 -2766.67,2766.68 -1527.99,0 -2766.68,-1238.69 -2766.68,-2766.68"
                style="fill:#204b76;fill-opacity:1;fill-rule:evenodd;stroke:none"
                id="path348"/>
            <path
                d="m 1262.95,2345.78 c 0,1515.15 1228.28,2743.43 2743.43,2743.43 1515.15,0 2743.42,-1228.28 2743.42,-2743.43 0,-1515.155 -1228.27,-2743.428 -2743.42,-2743.428 -1515.15,0 -2743.43,1228.273 -2743.43,2743.428 z m -69.75,0 c 0,-1553.675 1259.5,-2813.178 2813.18,-2813.178 1553.67,0 2813.17,1259.503 2813.17,2813.178 0,1553.67 -1259.5,2813.17 -2813.17,2813.17 -1553.68,0 -2813.18,-1259.5 -2813.18,-2813.17"
                style="fill:#204a75;fill-opacity:1;fill-rule:evenodd;stroke:none"
                id="path350"/>
            <path
                d="m 1216.45,2345.78 c 0,1540.83 1249.1,2789.93 2789.93,2789.93 1540.83,0 2789.92,-1249.1 2789.92,-2789.93 0,-1540.835 -1249.09,-2789.928 -2789.92,-2789.928 -1540.83,0 -2789.93,1249.093 -2789.93,2789.928 z m -69.74,0 c 0,-1579.354 1280.31,-2859.675 2859.67,-2859.675 1579.35,0 2859.67,1280.321 2859.67,2859.675 0,1579.35 -1280.32,2859.67 -2859.67,2859.67 -1579.36,0 -2859.67,-1280.32 -2859.67,-2859.67"
                style="fill:#204a75;fill-opacity:1;fill-rule:evenodd;stroke:none"
                id="path352"/>
            <path
                d="m 1169.95,2345.78 c 0,1566.51 1269.92,2836.42 2836.43,2836.42 1566.51,0 2836.42,-1269.91 2836.42,-2836.42 0,-1566.514 -1269.91,-2836.428 -2836.42,-2836.428 -1566.51,0 -2836.43,1269.914 -2836.43,2836.428 z m -69.74,0 c 0,-1605.038 1301.13,-2906.175 2906.17,-2906.175 1605.03,0 2906.17,1301.137 2906.17,2906.175 0,1605.03 -1301.14,2906.17 -2906.17,2906.17 -1605.04,0 -2906.17,-1301.14 -2906.17,-2906.17"
                style="fill:#204a74;fill-opacity:1;fill-rule:evenodd;stroke:none"
                id="path354"/>
            <path
                d="m 1123.46,2345.78 c 0,1592.19 1290.72,2882.92 2882.92,2882.92 1592.19,0 2882.92,-1290.73 2882.92,-2882.92 0,-1592.198 -1290.73,-2882.925 -2882.92,-2882.925 -1592.2,0 -2882.92,1290.727 -2882.92,2882.925 z m -69.75,0 c 0,-1630.717 1321.95,-2952.675 2952.67,-2952.675 1630.71,0 2952.67,1321.958 2952.67,2952.675 0,1630.71 -1321.96,2952.67 -2952.67,2952.67 -1630.72,0 -2952.67,-1321.96 -2952.67,-2952.67"
                style="fill:#204a74;fill-opacity:1;fill-rule:evenodd;stroke:none"
                id="path356"/>
            <path
                d="m 1076.96,2345.78 c 0,1617.87 1311.54,2929.42 2929.42,2929.42 1617.87,0 2929.42,-1311.55 2929.42,-2929.42 0,-1617.874 -1311.55,-2929.425 -2929.42,-2929.425 -1617.88,0 -2929.42,1311.551 -2929.42,2929.425 z m -69.75,0 c 0,-1656.397 1342.77,-2999.175 2999.17,-2999.175 1656.39,0 2999.17,1342.778 2999.17,2999.175 0,1656.39 -1342.78,2999.17 -2999.17,2999.17 -1656.4,0 -2999.17,-1342.78 -2999.17,-2999.17"
                style="fill:#1f4973;fill-opacity:1;fill-rule:evenodd;stroke:none"
                id="path358"/>
            <path
                d="m 1030.46,2345.78 c 0,1643.56 1332.36,2975.92 2975.92,2975.92 1643.56,0 2975.92,-1332.36 2975.92,-2975.92 0,-1643.557 -1332.36,-2975.925 -2975.92,-2975.925 -1643.56,0 -2975.92,1332.368 -2975.92,2975.925 z m -69.749,0 c 0,-1682.077 1363.589,-3045.671 3045.669,-3045.671 1682.08,0 3045.67,1363.594 3045.67,3045.671 0,1682.08 -1363.59,3045.67 -3045.67,3045.67 -1682.08,0 -3045.669,-1363.59 -3045.669,-3045.67"
                style="fill:#1f4972;fill-opacity:1;fill-rule:evenodd;stroke:none"
                id="path360"/>
            <path
                d="m 983.957,2345.78 c 0,1669.24 1353.183,3022.42 3022.423,3022.42 1669.23,0 3022.42,-1353.18 3022.42,-3022.42 0,-1669.237 -1353.19,-3022.421 -3022.42,-3022.421 -1669.24,0 -3022.423,1353.184 -3022.423,3022.421 z m -69.746,0 c 0,-1707.76 1384.409,-3092.171 3092.169,-3092.171 1707.75,0 3092.17,1384.411 3092.17,3092.171 0,1707.76 -1384.42,3092.17 -3092.17,3092.17 -1707.76,0 -3092.169,-1384.41 -3092.169,-3092.17"
                style="fill:#1f4972;fill-opacity:1;fill-rule:evenodd;stroke:none"
                id="path362"/>
            <path
                d="m 937.461,2345.78 c 0,1694.92 1373.999,3068.92 3068.919,3068.92 1694.92,0 3068.92,-1374 3068.92,-3068.92 0,-1694.917 -1374,-3068.921 -3068.92,-3068.921 -1694.92,0 -3068.919,1374.004 -3068.919,3068.921 z m -69.75,0 c 0,-1733.44 1405.229,-3138.667 3138.669,-3138.667 1733.44,0 3138.66,1405.227 3138.66,3138.667 0,1733.43 -1405.22,3138.67 -3138.66,3138.67 -1733.44,0 -3138.669,-1405.24 -3138.669,-3138.67"
                style="fill:#1f4971;fill-opacity:1;fill-rule:evenodd;stroke:none"
                id="path364"/>
            <path
                d="m 890.961,2345.78 c 0,1720.6 1394.819,3115.42 3115.419,3115.42 1720.6,0 3115.42,-1394.82 3115.42,-3115.42 0,-1720.6 -1394.82,-3115.417 -3115.42,-3115.417 -1720.6,0 -3115.419,1394.817 -3115.419,3115.417 z m -69.75,0 c 0,-1759.12 1426.049,-3185.167 3185.169,-3185.167 1759.12,0 3185.16,1426.047 3185.16,3185.167 0,1759.12 -1426.04,3185.16 -3185.16,3185.16 -1759.12,0 -3185.169,-1426.04 -3185.169,-3185.16"
                style="fill:#1f4871;fill-opacity:1;fill-rule:evenodd;stroke:none"
                id="path366"/>
            <path
                d="m 844.461,2345.78 c 0,1746.27 1415.639,3161.91 3161.919,3161.91 1746.28,0 3161.91,-1415.64 3161.91,-3161.91 C 7168.29,599.5 5752.66,-816.137 4006.38,-816.137 2260.1,-816.137 844.461,599.5 844.461,2345.78 Z m -69.746,0 c 0,-1784.8 1446.865,-3231.663 3231.665,-3231.663 1784.8,0 3231.66,1446.863 3231.66,3231.663 0,1784.8 -1446.86,3231.66 -3231.66,3231.66 -1784.8,0 -3231.665,-1446.86 -3231.665,-3231.66"
                style="fill:#1f4870;fill-opacity:1;fill-rule:evenodd;stroke:none"
                id="path368"/>
            <path
                d="m 797.965,2345.78 c 0,1771.95 1436.455,3208.41 3208.415,3208.41 1771.96,0 3208.41,-1436.46 3208.41,-3208.41 0,-1771.96 -1436.45,-3208.417 -3208.41,-3208.417 -1771.96,0 -3208.415,1436.457 -3208.415,3208.417 z m -69.75,0 c 0,-1810.479 1467.685,-3278.163 3278.165,-3278.163 1810.48,0 3278.16,1467.684 3278.16,3278.163 0,1810.48 -1467.68,3278.16 -3278.16,3278.16 -1810.48,0 -3278.165,-1467.68 -3278.165,-3278.16"
                style="fill:#1f4870;fill-opacity:1;fill-rule:evenodd;stroke:none"
                id="path370"/>
            <path
                d="m 751.465,2345.78 c 0,1797.64 1457.275,3254.91 3254.915,3254.91 1797.64,0 3254.91,-1457.27 3254.91,-3254.91 0,-1797.639 -1457.27,-3254.913 -3254.91,-3254.913 -1797.64,0 -3254.915,1457.274 -3254.915,3254.913 z m -69.746,0 c 0,-1836.159 1488.501,-3324.663 3324.661,-3324.663 1836.16,0 3324.66,1488.504 3324.66,3324.663 0,1836.16 -1488.5,3324.66 -3324.66,3324.66 -1836.16,0 -3324.661,-1488.5 -3324.661,-3324.66"
                style="fill:#1f486f;fill-opacity:1;fill-rule:evenodd;stroke:none"
                id="path372"/>
            <path
                d="m 704.965,2345.78 c 0,1823.32 1478.095,3301.41 3301.415,3301.41 1823.32,0 3301.41,-1478.09 3301.41,-3301.41 0,-1823.323 -1478.09,-3301.413 -3301.41,-3301.413 -1823.32,0 -3301.415,1478.09 -3301.415,3301.413 z m -69.746,0 c 0,-1861.842 1509.321,-3371.16 3371.161,-3371.16 1861.84,0 3371.16,1509.318 3371.16,3371.16 0,1861.84 -1509.32,3371.16 -3371.16,3371.16 -1861.84,0 -3371.161,-1509.32 -3371.161,-3371.16"
                style="fill:#1f476f;fill-opacity:1;fill-rule:evenodd;stroke:none"
                id="path374"/>
            <path
                d="m 658.469,2345.78 c 0,1849 1498.911,3347.91 3347.911,3347.91 1849,0 3347.91,-1498.91 3347.91,-3347.91 0,-1849.003 -1498.91,-3347.91 -3347.91,-3347.91 -1849,0 -3347.911,1498.907 -3347.911,3347.91 z m -69.75,0 c 0,-1887.522 1530.141,-3417.66 3417.661,-3417.66 1887.52,0 3417.66,1530.138 3417.66,3417.66 0,1887.52 -1530.14,3417.66 -3417.66,3417.66 -1887.52,0 -3417.661,-1530.14 -3417.661,-3417.66"
                style="fill:#1f476e;fill-opacity:1;fill-rule:evenodd;stroke:none"
                id="path376"/>
            <path
                d="m 611.969,2345.78 c 0,1874.68 1519.731,3394.41 3394.411,3394.41 1874.68,0 3394.41,-1519.73 3394.41,-3394.41 0,-1874.682 -1519.73,-3394.41 -3394.41,-3394.41 -1874.68,0 -3394.411,1519.728 -3394.411,3394.41 z m -69.746,0 c 0,-1913.202 1550.957,-3464.16 3464.157,-3464.16 1913.2,0 3464.16,1550.958 3464.16,3464.16 0,1913.2 -1550.96,3464.16 -3464.16,3464.16 -1913.2,0 -3464.157,-1550.96 -3464.157,-3464.16"
                style="fill:#1e476e;fill-opacity:1;fill-rule:evenodd;stroke:none"
                id="path378"/>
            <path
                d="m 565.473,2345.78 c 0,1900.36 1540.547,3440.91 3440.907,3440.91 1900.36,0 3440.91,-1540.55 3440.91,-3440.91 0,-1900.362 -1540.55,-3440.91 -3440.91,-3440.91 -1900.36,0 -3440.907,1540.548 -3440.907,3440.91 z m -69.75,0 c 0,-1938.885 1571.777,-3510.66 3510.657,-3510.66 1938.88,0 3510.66,1571.775 3510.66,3510.66 0,1938.88 -1571.78,3510.65 -3510.66,3510.65 -1938.88,0 -3510.657,-1571.77 -3510.657,-3510.65"
                style="fill:#1e476d;fill-opacity:1;fill-rule:evenodd;stroke:none"
                id="path380"/>
            <path
                d="m 518.973,2345.78 c 0,1926.04 1561.367,3487.4 3487.407,3487.4 1926.04,0 3487.41,-1561.36 3487.41,-3487.4 0,-1926.046 -1561.37,-3487.41 -3487.41,-3487.41 -1926.04,0 -3487.407,1561.364 -3487.407,3487.41 z m -69.746,0 c 0,-1964.565 1592.593,-3557.16 3557.153,-3557.16 1964.56,0 3557.16,1592.595 3557.16,3557.16 0,1964.56 -1592.6,3557.15 -3557.16,3557.15 -1964.56,0 -3557.153,-1592.59 -3557.153,-3557.15"
                style="fill:#1e476d;fill-opacity:1;fill-rule:evenodd;stroke:none"
                id="path382"/>
            <path
                d="m 472.473,2345.78 c 0,1951.72 1582.187,3533.9 3533.907,3533.9 1951.72,0 3533.91,-1582.18 3533.91,-3533.9 0,-1951.721 -1582.19,-3533.91 -3533.91,-3533.91 -1951.72,0 -3533.907,1582.189 -3533.907,3533.91 z m -69.746,0 c 0,-1990.245 1613.413,-3603.66 3603.653,-3603.66 1990.24,0 3603.66,1613.415 3603.66,3603.66 0,1990.24 -1613.42,3603.65 -3603.66,3603.65 -1990.24,0 -3603.653,-1613.41 -3603.653,-3603.65"
                style="fill:#1e466c;fill-opacity:1;fill-rule:evenodd;stroke:none"
                id="path384"/>
            <path
                d="m 425.977,2345.78 c 0,1977.4 1603.003,3580.4 3580.403,3580.4 1977.41,0 3580.41,-1603 3580.41,-3580.4 0,-1977.405 -1603,-3580.41 -3580.41,-3580.41 -1977.4,0 -3580.403,1603.005 -3580.403,3580.41 z m -69.75,0 c 0,-2015.925 1634.233,-3650.16 3650.153,-3650.16 2015.92,0 3650.15,1634.235 3650.15,3650.16 0,2015.92 -1634.23,3650.15 -3650.15,3650.15 -2015.92,0 -3650.153,-1634.23 -3650.153,-3650.15"
                style="fill:#1e466c;fill-opacity:1;fill-rule:evenodd;stroke:none"
                id="path386"/>
            <path
                d="m 379.477,2345.78 c 0,2003.08 1623.823,3626.9 3626.903,3626.9 2003.08,0 3626.91,-1623.82 3626.91,-3626.9 0,-2003.085 -1623.83,-3626.91 -3626.91,-3626.91 -2003.08,0 -3626.903,1623.825 -3626.903,3626.91 z m -69.75,0 c 0,-2041.608 1655.043,-3696.65 3696.653,-3696.65 2041.6,0 3696.65,1655.042 3696.65,3696.65 0,2041.6 -1655.05,3696.65 -3696.65,3696.65 -2041.61,0 -3696.653,-1655.05 -3696.653,-3696.65"
                style="fill:#1e466b;fill-opacity:1;fill-rule:evenodd;stroke:none"
                id="path388"/>
            <path
                d="m 332.977,2345.78 c 0,2028.76 1644.633,3673.4 3673.403,3673.4 2028.76,0 3673.4,-1644.64 3673.4,-3673.4 0,-2028.764 -1644.64,-3673.41 -3673.4,-3673.41 -2028.77,0 -3673.403,1644.646 -3673.403,3673.41 z m -69.747,0 c 0,-2067.284 1675.86,-3743.15 3743.15,-3743.15 2067.28,0 3743.15,1675.866 3743.15,3743.15 0,2067.28 -1675.87,3743.15 -3743.15,3743.15 -2067.29,0 -3743.15,-1675.87 -3743.15,-3743.15"
                style="fill:#1e466b;fill-opacity:1;fill-rule:evenodd;stroke:none"
                id="path390"/>
            <path
                d="m 286.48,2345.78 c 0,2054.44 1665.45,3719.9 3719.9,3719.9 2054.44,0 3719.9,-1665.46 3719.9,-3719.9 0,-2054.444 -1665.46,-3719.9 -3719.9,-3719.9 -2054.45,0 -3719.9,1665.456 -3719.9,3719.9 z m -69.75,0 c 0,-2092.967 1696.68,-3789.65 3789.65,-3789.65 2092.96,0 3789.65,1696.683 3789.65,3789.65 0,2092.96 -1696.69,3789.65 -3789.65,3789.65 -2092.97,0 -3789.65,-1696.69 -3789.65,-3789.65"
                style="fill:#1e456a;fill-opacity:1;fill-rule:evenodd;stroke:none"
                id="path392"/>
            <path
                d="m 239.98,2345.78 c 0,2080.12 1686.27,3766.4 3766.4,3766.4 2080.12,0 3766.4,-1686.28 3766.4,-3766.4 0,-2080.128 -1686.28,-3766.4 -3766.4,-3766.4 -2080.13,0 -3766.4,1686.272 -3766.4,3766.4 z m -69.75,0 c 0,-2118.647 1717.5,-3836.15 3836.15,-3836.15 2118.64,0 3836.15,1717.503 3836.15,3836.15 0,2118.65 -1717.51,3836.15 -3836.15,3836.15 -2118.65,0 -3836.15,-1717.5 -3836.15,-3836.15"
                style="fill:#1e4569;fill-opacity:1;fill-rule:evenodd;stroke:none"
                id="path394"/>
            <path
                d="m 193.48,2345.78 c 0,2105.8 1707.09,3812.9 3812.9,3812.9 2105.8,0 3812.9,-1707.1 3812.9,-3812.9 0,-2105.807 -1707.1,-3812.9 -3812.9,-3812.9 -2105.81,0 -3812.9,1707.093 -3812.9,3812.9 z m -69.746,0 c 0,-2144.327 1738.316,-3882.65 3882.646,-3882.65 2144.32,0 3882.64,1738.323 3882.64,3882.65 0,2144.33 -1738.32,3882.65 -3882.64,3882.65 -2144.33,0 -3882.646,-1738.32 -3882.646,-3882.65"
                style="fill:#1e4569;fill-opacity:1;fill-rule:evenodd;stroke:none"
                id="path396"/>
            <path
                d="m 146.98,2345.78 c 0,2131.49 1727.91,3859.4 3859.4,3859.4 2131.49,0 3859.39,-1727.91 3859.39,-3859.4 0,-2131.487 -1727.9,-3859.4 -3859.39,-3859.4 -2131.49,0 -3859.4,1727.913 -3859.4,3859.4 z m -69.7456,0 c 0,-2170.007 1759.1356,-3929.15 3929.1456,-3929.15 2170.01,0 3929.14,1759.143 3929.14,3929.15 0,2170.01 -1759.13,3929.15 -3929.14,3929.15 C 1836.37,6274.93 77.2344,4515.79 77.2344,2345.78"
                style="fill:#1e4569;fill-opacity:1;fill-rule:evenodd;stroke:none"
                id="path398"/>
            <path
                d="m 100.484,2345.78 c 0,2157.17 1748.726,3905.9 3905.896,3905.9 2157.16,0 3905.89,-1748.73 3905.89,-3905.9 0,-2157.171 -1748.73,-3905.9 -3905.89,-3905.9 -2157.17,0 -3905.896,1748.729 -3905.896,3905.9 z m -69.7496,0 c 0,-2195.69 1779.9556,-3975.65 3975.6456,-3975.65 2195.69,0 3975.64,1779.96 3975.64,3975.65 0,2195.69 -1779.95,3975.64 -3975.64,3975.64 C 1810.69,6321.42 30.7344,4541.47 30.7344,2345.78"
                style="fill:#1d4468;fill-opacity:1;fill-rule:evenodd;stroke:none"
                id="path400"/>
            <path
                d="m 53.9844,2345.78 c 0,2182.85 1769.5456,3952.39 3952.3956,3952.39 2182.85,0 3952.39,-1769.54 3952.39,-3952.39 0,-2182.85 -1769.54,-3952.4 -3952.39,-3952.4 -2182.85,0 -3952.3956,1769.55 -3952.3956,3952.4 z m -69.75,0 c 0,-2221.37 1800.7756,-4022.15 4022.1456,-4022.15 2221.37,0 4022.14,1800.78 4022.14,4022.15 0,2221.36 -1800.77,4022.14 -4022.14,4022.14 -2221.37,0 -4022.1456,-1800.78 -4022.1456,-4022.14"
                style="fill:#1d4468;fill-opacity:1;fill-rule:evenodd;stroke:none"
                id="path402"/>
            <path
                d="m 7.48438,2345.78 c 0,2208.52 1790.36562,3998.89 3998.89562,3998.89 2208.53,0 3998.89,-1790.37 3998.89,-3998.89 0,-2208.53 -1790.36,-3998.9 -3998.89,-3998.9 -2208.53,0 -3998.89562,1790.37 -3998.89562,3998.9 z m -69.74608,0 c 0,-2247.0495 1821.5917,-4068.64 4068.6417,-4068.64 2247.05,0 4068.64,1821.5905 4068.64,4068.64 0,2247.05 -1821.59,4068.64 -4068.64,4068.64 -2247.05,0 -4068.6417,-1821.59 -4068.6417,-4068.64"
                style="fill:#1d4467;fill-opacity:1;fill-rule:evenodd;stroke:none"
                id="path404"/>
            <path
                d="m -39.0156,2345.78 c 0,2234.21 1811.1856,4045.39 4045.3956,4045.39 2234.21,0 4045.39,-1811.18 4045.39,-4045.39 0,-2234.21 -1811.18,-4045.39 -4045.39,-4045.39 -2234.21,0 -4045.3956,1811.18 -4045.3956,4045.39 z m -69.7464,0 c 0,-2272.7292 1842.412,-4115.14 4115.142,-4115.14 2272.73,0 4115.14,1842.4108 4115.14,4115.14 0,2272.73 -1842.41,4115.14 -4115.14,4115.14 -2272.73,0 -4115.142,-1842.41 -4115.142,-4115.14"
                style="fill:#1d4366;fill-opacity:1;fill-rule:evenodd;stroke:none"
                id="path406"/>
            <path
                d="m -85.5117,2345.78 c 0,2259.89 1832.0017,4091.89 4091.8917,4091.89 2259.89,0 4091.89,-1832 4091.89,-4091.89 0,-2259.8933 -1832,-4091.89 -4091.89,-4091.89 -2259.89,0 -4091.8917,1831.9967 -4091.8917,4091.89 z m -69.7503,0 c 0,-2298.4128 1863.232,-4161.64 4161.642,-4161.64 2298.41,0 4161.64,1863.2272 4161.64,4161.64 0,2298.41 -1863.23,4161.64 -4161.64,4161.64 -2298.41,0 -4161.642,-1863.23 -4161.642,-4161.64"
                style="fill:#1d4366;fill-opacity:1;fill-rule:evenodd;stroke:none"
                id="path408"/>
            <path
                d="m -132.012,2345.78 c 0,2285.57 1852.822,4138.39 4138.392,4138.39 2285.57,0 4138.39,-1852.82 4138.39,-4138.39 0,-2285.5691 -1852.82,-4138.39 -4138.39,-4138.39 -2285.57,0 -4138.392,1852.8209 -4138.392,4138.39 z m -69.75,0 c 0,-2324.0925 1884.052,-4208.14 4208.142,-4208.14 2324.09,0 4208.14,1884.0475 4208.14,4208.14 0,2324.09 -1884.05,4208.13 -4208.14,4208.13 -2324.09,0 -4208.142,-1884.04 -4208.142,-4208.13"
                style="fill:#1d4365;fill-opacity:1;fill-rule:evenodd;stroke:none"
                id="path410"/>
            <path
                d="m -178.512,2345.78 c 0,2311.25 1873.642,4184.88 4184.892,4184.88 2311.25,0 4184.89,-1873.63 4184.89,-4184.88 0,-2311.2527 -1873.64,-4184.89 -4184.89,-4184.89 -2311.25,0 -4184.892,1873.6373 -4184.892,4184.89 z m -69.746,0 c 0,-2349.77219 1904.868,-4254.64 4254.638,-4254.64 2349.77,0 4254.64,1904.86781 4254.64,4254.64 0,2349.77 -1904.87,4254.63 -4254.64,4254.63 -2349.77,0 -4254.638,-1904.86 -4254.638,-4254.63"
                style="fill:#1d4365;fill-opacity:1;fill-rule:evenodd;stroke:none"
                id="path412"/>
            <path
                d="m -225.008,2345.78 c 0,2336.93 1894.458,4231.38 4231.388,4231.38 2336.93,0 4231.39,-1894.45 4231.39,-4231.38 0,-2336.93234 -1894.46,-4231.39 -4231.39,-4231.39 -2336.93,0 -4231.388,1894.45766 -4231.388,4231.39 z m -69.75,0 c 0,-2375.4558 1925.688,-4301.14 4301.138,-4301.14 2375.45,0 4301.14,1925.6842 4301.14,4301.14 0,2375.45 -1925.69,4301.13 -4301.14,4301.13 -2375.45,0 -4301.138,-1925.68 -4301.138,-4301.13"
                style="fill:#1d4264;fill-opacity:1;fill-rule:evenodd;stroke:none"
                id="path414"/>
            <path
                d="m -271.508,2345.78 c 0,2362.61 1915.278,4277.88 4277.888,4277.88 2362.61,0 4277.89,-1915.27 4277.89,-4277.88 0,-2362.612 -1915.28,-4277.89 -4277.89,-4277.89 -2362.61,0 -4277.888,1915.278 -4277.888,4277.89 z m -69.746,0 c 0,-2401.1316 1946.504,-4347.64 4347.634,-4347.64 2401.13,0 4347.63,1946.5084 4347.63,4347.64 0,2401.13 -1946.5,4347.63 -4347.63,4347.63 -2401.13,0 -4347.634,-1946.5 -4347.634,-4347.63"
                style="display:inline;fill:#1d4264;fill-opacity:1;fill-rule:evenodd;stroke:none"
                id="path416"/>
            <path
                d="m -318.008,2345.78 c 0,2388.29 1936.098,4324.38 4324.388,4324.38 2388.29,0 4324.38,-1936.09 4324.38,-4324.38 0,-2388.2917 -1936.09,-4324.39 -4324.38,-4324.39 -2388.29,0 -4324.388,1936.0983 -4324.388,4324.39 z m -69.746,0 c 0,-2426.8152 1967.324,-4394.13 4394.134,-4394.13 2426.81,0 4394.13,1967.3148 4394.13,4394.13 0,2426.81 -1967.32,4394.13 -4394.13,4394.13 -2426.81,0 -4394.134,-1967.32 -4394.134,-4394.13"
                style="fill:#1d4264;fill-opacity:1;fill-rule:evenodd;stroke:none"
                id="path418"/>
            <path
                d="m -364.504,2345.78 c 0,2413.97 1956.914,4370.88 4370.884,4370.88 2413.97,0 4370.88,-1956.91 4370.88,-4370.88 0,-2413.9753 -1956.91,-4370.89 -4370.88,-4370.89 -2413.97,0 -4370.884,1956.9147 -4370.884,4370.89 z m -69.75,0 c 0,-2452.495 1988.144,-4440.63 4440.634,-4440.63 2452.49,0 4440.63,1988.135 4440.63,4440.63 0,2452.49 -1988.14,4440.63 -4440.63,4440.63 -2452.49,0 -4440.634,-1988.14 -4440.634,-4440.63"
                style="fill:#1d4263;fill-opacity:1;fill-rule:evenodd;stroke:none"
                id="path420"/>
            <path
                d="m -411.004,2345.78 c 0,2439.65 1977.734,4417.38 4417.384,4417.38 2439.65,0 4417.38,-1977.73 4417.38,-4417.38 0,-2439.655 -1977.73,-4417.38 -4417.38,-4417.38 -2439.65,0 -4417.384,1977.725 -4417.384,4417.38 z m -69.746,0 c 0,-2478.175 2008.95,-4487.13 4487.13,-4487.13 2478.17,0 4487.13,2008.955 4487.13,4487.13 0,2478.17 -2008.96,4487.13 -4487.13,4487.13 -2478.18,0 -4487.13,-2008.96 -4487.13,-4487.13"
                style="fill:#1c4162;fill-opacity:1;fill-rule:evenodd;stroke:none"
                id="path422"/>
            <path
                d="m -457.5,2345.78 c 0,2465.33 1998.55,4463.88 4463.88,4463.88 2465.33,0 4463.88,-1998.55 4463.88,-4463.88 0,-2465.335 -1998.55,-4463.88 -4463.88,-4463.88 -2465.33,0 -4463.88,1998.545 -4463.88,4463.88 z m -69.75,0 c 0,-2503.854 2029.78,-4533.63 4533.63,-4533.63 2503.85,0 4533.63,2029.776 4533.63,4533.63 0,2503.85 -2029.78,4533.63 -4533.63,4533.63 -2503.85,0 -4533.63,-2029.78 -4533.63,-4533.63"
                style="fill:#1c4162;fill-opacity:1;fill-rule:evenodd;stroke:none"
                id="path424"/>
            <path
                d="m -504,2345.78 c 0,2491.01 2019.37,4510.38 4510.38,4510.38 2491.01,0 4510.38,-2019.37 4510.38,-4510.38 0,-2491.014 -2019.37,-4510.38 -4510.38,-4510.38 C 1515.37,-2164.6 -504,-145.234 -504,2345.78 Z m -69.746,0 c 0,-2529.538 2050.586,-4580.13 4580.126,-4580.13 2529.53,0 4580.13,2050.592 4580.13,4580.13 0,2529.53 -2050.6,4580.13 -4580.13,4580.13 -2529.54,0 -4580.126,-2050.6 -4580.126,-4580.13"
                style="fill:#1c4161;fill-opacity:1;fill-rule:evenodd;stroke:none"
                id="path426"/>
            <path
                d="m -550.5,2345.78 c 0,2516.69 2040.18,4556.88 4556.88,4556.88 2516.69,0 4556.88,-2040.19 4556.88,-4556.88 0,-2516.698 -2040.19,-4556.88 -4556.88,-4556.88 -2516.7,0 -4556.88,2040.182 -4556.88,4556.88 z m -69.746,0 c 0,-2555.218 2071.406,-4626.63 4626.626,-4626.63 2555.21,0 4626.63,2071.412 4626.63,4626.63 0,2555.21 -2071.42,4626.63 -4626.63,4626.63 -2555.22,0 -4626.626,-2071.42 -4626.626,-4626.63"
                style="fill:#1c4161;fill-opacity:1;fill-rule:evenodd;stroke:none"
                id="path428"/>
            <path
                d="m -596.996,2345.78 c 0,2542.37 2060.996,4603.38 4603.376,4603.38 2542.37,0 4603.38,-2061.01 4603.38,-4603.38 0,-2542.374 -2061.01,-4603.38 -4603.38,-4603.38 -2542.38,0 -4603.376,2061.006 -4603.376,4603.38 z m -69.75,0 c 0,-2580.897 2092.226,-4673.13 4673.126,-4673.13 2580.89,0 4673.12,2092.233 4673.12,4673.13 0,2580.9 -2092.23,4673.13 -4673.12,4673.13 -2580.9,0 -4673.126,-2092.23 -4673.126,-4673.13"
                style="fill:#1c4161;fill-opacity:1;fill-rule:evenodd;stroke:none"
                id="path430"/>
            <path
                d="m -643.496,2345.78 c 0,2568.06 2081.816,4649.88 4649.876,4649.88 2568.05,0 4649.88,-2081.82 4649.88,-4649.88 0,-2568.057 -2081.83,-4649.88 -4649.88,-4649.88 -2568.06,0 -4649.876,2081.823 -4649.876,4649.88 z m -69.75,0 c 0,-2606.577 2113.046,-4719.63 4719.626,-4719.63 2606.57,0 4719.62,2113.053 4719.62,4719.63 0,2606.58 -2113.05,4719.62 -4719.62,4719.62 -2606.58,0 -4719.626,-2113.04 -4719.626,-4719.62"
                style="fill:#1c4160;fill-opacity:1;fill-rule:evenodd;stroke:none"
                id="path432"/>
            <path
                d="m -689.996,2345.78 c 0,2593.74 2102.636,4696.37 4696.376,4696.37 2593.73,0 4696.37,-2102.63 4696.37,-4696.37 0,-2593.741 -2102.64,-4696.38 -4696.37,-4696.38 -2593.74,0 -4696.376,2102.639 -4696.376,4696.38 z m -46.496,0 c 0,-2619.417 2123.452,-4742.87 4742.872,-4742.87 2619.42,0 4742.87,2123.453 4742.87,4742.87 0,2619.42 -2123.45,4742.87 -4742.87,4742.87 -2619.42,0 -4742.872,-2123.45 -4742.872,-4742.87"
                style="fill:#1c405f;fill-opacity:1;fill-rule:evenodd;stroke:none"
                id="path434"/>
        </g>
        <g
            id="g702"
            inkscape:label="Logo"
            transform="translate(0,0.71910369)">
            <path
                d="m 84.733262,257.64962 c -1.943798,-9.28107 -10.173197,-16.25181 -20.031851,-16.25181 -9.824636,0 -18.030893,6.92283 -20.010817,16.15599 8.396804,3.31552 26.630606,5.04324 40.042668,0.0958"
                style="fill:#ff0000;fill-opacity:1;fill-rule:evenodd;stroke:none;stroke-width:0.0479122"
                id="path436"
                inkscape:label="stripes-red"/>
            <path
                d="m 64.701411,282.33255 c 11.303685,0 20.467372,-9.16321 20.467372,-20.46713 0,-1.44551 -0.150923,-2.85509 -0.435521,-4.2158 -2.721892,1.00376 -5.642141,1.73299 -8.638091,2.22984 0.111636,0.64537 0.170089,1.30848 0.170089,1.98596 0,6.38669 -5.177392,11.56409 -11.563849,11.56409 -6.386744,0 -11.56404,-5.1774 -11.56404,-11.56409 0,-0.71006 0.0642,-1.40479 0.186762,-2.07891 -3.399706,-0.56345 -6.373425,-1.34011 -8.633539,-2.23271 -0.298685,1.38993 -0.45646,2.83209 -0.45646,4.31162 0,11.30392 9.163352,20.46713 20.467277,20.46713"
                style="fill:#137ec0;fill-opacity:1;fill-rule:evenodd;stroke:none;stroke-width:0.0479122"
                id="path438"
                inkscape:label="circle-blue"/>
            <path
                d="m 64.701411,273.42951 c 6.386457,0 11.563849,-5.1774 11.563849,-11.56409 0,-0.67748 -0.05845,-1.34059 -0.170089,-1.98596 -7.794931,1.29219 -16.103385,1.01142 -22.771038,-0.0929 -0.12256,0.67412 -0.186762,1.36885 -0.186762,2.07891 0,6.38669 5.177296,11.56409 11.56404,11.56409"
                style="fill:#ffffff;fill-opacity:1;fill-rule:evenodd;stroke:none;stroke-width:0.0479122"
                id="path440"
                inkscape:label="circle-white"/>
            <path
                d="m 82.593024,251.92124 c -11.046637,0.19836 -23.254234,-2.13832 -29.940573,-6.60086 1.705004,-1.2438 3.609514,-2.22984 5.65661,-2.903 5.411635,3.39937 12.523914,6.10928 22.983147,7.46232 0.472414,0.65257 0.906977,1.33388 1.300816,2.04154 z m 1.846536,4.5162 c -11.815627,3.19623 -28.429134,1.61033 -38.30954,-3.18328 0.608437,-1.30992 1.350501,-2.5451 2.210142,-3.68685 8.828397,4.2594 20.481315,6.18547 35.586258,5.25981 0.193086,0.52703 0.363654,1.0646 0.51314,1.61032"
                style="fill:#ffffff;fill-opacity:1;fill-rule:evenodd;stroke:none;stroke-width:0.0479122"
                id="path442"
                inkscape:label="stripes-white"/>
        </g>
        <g
            id="g696"
            inkscape:label="Obamacare"
            transform="translate(0,3.5449687)"
            style="fill:#000000;fill-opacity:1">
            <path
                d="m 97.652786,267.98428 c -2.446876,0 -4.432837,-0.83894 -5.978484,-2.51778 -1.541336,-1.67837 -2.318472,-3.8095 -2.318472,-6.40203 0,-2.6299 0.777136,-4.77397 2.318472,-6.43988 1.545647,-1.66591 3.531608,-2.50533 5.978484,-2.50533 2.447354,0 4.429004,0.83942 5.974174,2.53025 1.5375,1.67884 2.3017,3.82243 2.3017,6.41496 0,2.59253 -0.7642,4.72366 -2.30985,6.40203 -1.54948,1.67884 -3.54358,2.51778 -5.966024,2.51778 z m -3.947007,-13.36127 c -0.972139,1.13025 -1.458447,2.61313 -1.458447,4.44146 0,1.83647 0.486308,3.32367 1.470904,4.45392 0.976451,1.12162 2.289245,1.6822 3.93455,1.6822 1.665907,0 2.983014,-0.56058 3.942694,-1.69514 0.96399,-1.12977 1.4503,-2.61696 1.4503,-4.44098 0,-1.83647 -0.48631,-3.32367 -1.4503,-4.45392 -0.95968,-1.13408 -2.276787,-1.70759 -3.930237,-1.70759 -1.670219,0 -2.983013,0.57351 -3.959464,1.72005"
                style="fill:#000000;fill-opacity:1;fill-rule:nonzero;stroke:none;stroke-width:0.0479122"
                id="path444"
                inkscape:label="O"/>
            <path
                d="m 117.16311,259.49664 c 0.90123,0.83894 1.35017,1.91122 1.35017,3.21155 0,1.46228 -0.49829,2.66728 -1.49582,3.62264 -0.99274,0.95969 -2.18528,1.42923 -3.58958,1.42923 h -2.61745 -2.8915 v -17.441 h 1.47091 4.98957 c 1.3794,0 2.56762,0.49828 3.57282,1.50779 1.00999,1.00999 1.50827,2.22696 1.50827,3.65187 0,0.79391 -0.20746,1.57488 -0.63148,2.33093 -0.42786,0.73976 -0.9846,1.30896 -1.66591,1.68699 z m -3.71032,5.47972 c 0.62334,0 1.13408,-0.24483 1.54948,-0.7436 0.41588,-0.49877 0.61951,-1.04688 0.61951,-1.64531 0,-0.58548 -0.21609,-1.10916 -0.64394,-1.55762 -0.42786,-0.46571 -0.93908,-0.69425 -1.52505,-0.69425 h -2.64236 v 4.64078 z m -2.64236,-11.87408 v 4.74043 h 3.56898 c 0.59411,0 1.11732,-0.21561 1.54517,-0.64346 0.42834,-0.42834 0.64442,-0.97645 0.64442,-1.62039 0,-0.68131 -0.21608,-1.26728 -0.6564,-1.74544 -0.43648,-0.48583 -0.95153,-0.73114 -1.53319,-0.73114 h -3.56898"
                style="fill:#000000;fill-opacity:1;fill-rule:nonzero;stroke:none;stroke-width:0.0479122"
                id="path446"
                inkscape:label="B"/>
            <path
                d="m 134.81588,250.31474 -7.17916,17.47454 -7.17917,-17.47454 h 3.0913 l 1.15468,2.81676 h 5.87883 l 1.14271,-2.81676 z m -7.17916,10.14972 1.9941,-4.96466 h -3.98821 z"
                style="fill:#000000;fill-opacity:1;fill-rule:nonzero;stroke:none;stroke-width:0.0479122"
                id="path448"
                inkscape:label="A"/>
            <path
                d="m 136.30356,267.76437 v -17.44963 h 2.8915 v 7.44939 l 4.66138,-7.44939 4.71168,7.47 v -7.44508 h 2.8915 v 17.44962 l -7.60318,-12.16922 -7.55288,12.14431"
                style="fill:#000000;fill-opacity:1;fill-rule:nonzero;stroke:none;stroke-width:0.0479122"
                id="path450"
                inkscape:label="M"/>
            <path
                d="m 167.30131,250.31474 -7.17916,17.47454 -7.17965,-17.47454 h 3.0913 l 1.15468,2.81676 h 5.87931 l 1.14223,-2.81676 z m -7.17916,10.14972 1.9941,-4.96466 h -3.98869 z"
                style="fill:#000000;fill-opacity:1;fill-rule:nonzero;stroke:none;stroke-width:0.0479122"
                id="path452"
                inkscape:label="A"/>
            <path
                d="m 183.69543,263.37274 c -0.73114,1.4709 -1.75359,2.61744 -3.08267,3.40703 -1.32525,0.79343 -2.83353,1.18008 -4.54975,1.18008 -2.59252,0 -4.69874,-0.85236 -6.32728,-2.5427 -1.62854,-1.6913 -2.44304,-3.83489 -2.44304,-6.40251 0,-2.58007 0.8145,-4.71168 2.44304,-6.39005 1.62854,-1.69082 3.73476,-2.53024 6.32728,-2.53024 3.4195,0 6.13229,1.64099 7.63242,4.62448 l -2.37645,1.27543 c -1.1427,-2.08131 -2.90827,-3.11621 -5.30531,-3.11621 -1.76605,0 -3.1785,0.58596 -4.23784,1.75358 -1.0555,1.159 -1.59116,2.6299 -1.59116,4.40793 0,1.79047 0.53566,3.26138 1.60314,4.41654 1.07227,1.14654 2.48473,1.71957 4.22586,1.71957 2.33476,0 4.19998,-1.13408 5.30531,-3.07021 l 2.37645,1.26728"
                style="fill:#000000;fill-opacity:1;fill-rule:nonzero;stroke:none;stroke-width:0.0479122"
                id="path454"
                inkscape:label="C"/>
            <path
                d="m 198.54821,250.31474 -7.17916,17.47454 -7.17965,-17.47454 h 3.0913 l 1.15516,2.81676 h 5.87883 l 1.14222,-2.81676 z m -7.17916,10.14972 1.9941,-4.96466 h -3.98821 z"
                style="fill:#000000;fill-opacity:1;fill-rule:nonzero;stroke:none;stroke-width:0.0479122"
                id="path456"
                inkscape:label="A"/>
            <path
                d="m 210.73372,255.2588 c -0.3282,0.93477 -0.72683,1.60363 -1.18822,2.00657 1.69513,0.99322 2.75447,2.80861 2.75447,4.79457 0,1.57488 -0.54812,2.92504 -1.65345,4.04235 -1.10102,1.10103 -2.50533,1.65777 -4.20046,1.65777 h -6.41066 v -17.44532 h 2.89198 v 6.18212 h 3.02039 c 0.59794,0 1.03826,-0.14566 1.29171,-0.44894 0.25777,-0.30329 0.51123,-0.8514 0.78097,-1.64099 l 1.38802,-4.09219 h 3.1325 z m -7.80634,9.71756 h 3.36105 c 0.96399,0 1.73202,-0.28221 2.29307,-0.84326 0.5486,-0.57351 0.82697,-1.25482 0.82697,-2.07316 0,-0.81451 -0.27837,-1.5375 -0.83942,-2.14359 -0.57351,-0.62334 -1.32957,-0.92662 -2.28062,-0.92662 h -3.36105 v 5.98663"
                style="fill:#000000;fill-opacity:1;fill-rule:nonzero;stroke:none;stroke-width:0.0479122"
                id="path458"
                inkscape:label="R"/>
            <path
                d="m 217.42274,257.76797 h 6.08245 v 2.49287 h -6.08245 v 4.71552 h 7.44939 v 2.7837 h -7.44939 -2.8915 v -17.441 h 1.4206 9.19866 v 2.78322 h -7.72776 v 4.66569"
                style="fill:#000000;fill-opacity:1;fill-rule:nonzero;stroke:none;stroke-width:0.0479122"
                id="path460"
                inkscape:label="E"/>
        </g>
    </g>
</svg>
