<?xml version="1.0" encoding="utf-8"?>
<!DOCTYPE svg PUBLIC "-//W3C//DTD SVG 1.1//EN" "http://www.w3.org/Graphics/SVG/1.1/DTD/svg11.dtd">
<svg version="1.1" id="layer" xmlns="http://www.w3.org/2000/svg" x="0px" y="0px"
     width="250px" height="80px" viewBox="-74.754 10.123 250 80" enable-background="new -74.754 10.123 250 80" xml:space="preserve"
>
<g>
	<path fill="#007CC6" d="M-43.964,43.988c2.031,0,15.299,5.828,15.299,26.838c0,10.049-3.375,18.408-5.369,18.408
		c-0.881,0-1.227-0.884-1.227-2.57c0-3.719,1.304-7.018,1.304-14.954c0-15.298-6.288-21.511-9.126-24.962
		c-0.844-1.035-1.458-1.688-1.458-2.301C-44.541,44.217-44.387,43.988-43.964,43.988 M-10.567,44.486
		c0,0.613-0.614,1.265-1.457,2.301c-2.837,3.488-9.126,9.662-9.126,24.962c0,7.935,1.304,11.235,1.304,14.951
		c0,1.689-0.346,2.571-1.227,2.571c-1.994,0-5.369-8.359-5.369-18.406c0-21.012,13.268-26.84,15.3-26.84
		C-10.759,43.988-10.567,44.217-10.567,44.486"/>
    <path fill="#EF8200" d="M-32.385,48.205c0,2.723,2.185,4.945,4.832,4.945c2.683,0,4.831-2.223,4.831-4.945
		c0-2.761-2.186-4.946-4.831-4.946C-30.237,43.22-32.385,45.444-32.385,48.205"/>
    <path fill="#31AC28" d="M-52.707,40.345c-2.53-1.151-4.409-3.452-4.717-5.675c1.88-1.227,4.832-1.343,7.362-0.191
		c2.646,1.188,3.259,3.22,3.298,5.022C-48.106,40.689-50.062,41.533-52.707,40.345 M-45.46,27c-1.611-2.492-1.994-5.674-0.997-7.86
		c2.416-0.038,5.138,1.61,6.787,4.103c1.687,2.607,1.073,4.794,0.076,6.441C-41.511,29.916-43.735,29.608-45.46,27 M-41.665,40.229
		c-1.994-1.688-3.143-4.295-2.837-6.403c2.033-0.652,4.754,0.038,6.748,1.763c2.109,1.803,2.147,3.796,1.687,5.407
		C-37.6,41.725-39.555,41.993-41.665,40.229 M-35.529,33.827c-0.881-2.799-0.383-5.867,1.15-7.669
		c2.301,0.614,4.411,2.915,5.292,5.675c0.921,2.914-0.269,4.832-1.649,6.059C-32.615,37.661-34.646,36.74-35.529,33.827
		 M-46.111,54.225c-1.995,0.383-4.103-0.19-5.254-1.379c0.614-1.536,2.339-2.876,4.333-3.26c2.108-0.422,3.336,0.536,4.103,1.611
		C-43.237,52.462-44.003,53.805-46.111,54.225 M-51.403,48.282c-2.262-0.23-4.333-1.572-5.177-3.222
		c1.151-1.457,3.451-2.301,5.752-2.032c2.378,0.269,3.413,1.687,3.873,3.067C-47.723,47.362-48.987,48.55-51.403,48.282
		 M-51.595,31.372c-1.802-1.533-2.799-3.795-2.531-5.675c1.802-0.575,4.217,0.039,6.019,1.572c1.879,1.572,1.918,3.374,1.496,4.832
		C-47.952,32.715-49.716,32.983-51.595,31.372 M-39.401,19.371c-0.729-2.339-0.308-4.908,0.958-6.404
		c1.917,0.498,3.681,2.416,4.409,4.754c0.767,2.454-0.229,4.026-1.38,5.062C-36.987,22.554-38.674,21.786-39.401,19.371
		 M-69.348,79.723c0,0.078,0.038,0.117,0.115,0.117s0.192-0.078,0.344-0.117c7.133-2.568,17.715-5.713,32.516-6.67
		c0-0.117,0.115-0.806,0.115-1.304c0-1.074-0.115-2.188-0.153-2.378c-15.184,1.379-25.652,5.791-32.554,10.008
		C-69.195,79.571-69.348,79.607-69.348,79.723 M-8.344,39.5c0-1.763,0.652-3.795,3.298-5.022c2.53-1.151,5.483-1.035,7.362,0.191
		C2.01,36.893,0.13,39.194-2.4,40.345C-5.085,41.533-7.001,40.689-8.344,39.5 M-15.514,29.647c-1.035-1.611-1.649-3.796,0.076-6.442
		c1.611-2.492,4.371-4.142,6.787-4.103c0.997,2.185,0.614,5.367-0.996,7.86C-11.373,29.608-13.635,29.916-15.514,29.647
		 M-19.08,40.996c-0.46-1.61-0.421-3.643,1.688-5.407c1.994-1.687,4.715-2.376,6.748-1.763c0.306,2.108-0.843,4.678-2.838,6.403
		C-15.553,41.993-17.546,41.725-19.08,40.996 M-24.371,37.93c-1.38-1.266-2.569-3.145-1.649-6.059
		c0.881-2.799,2.991-5.063,5.292-5.675c1.533,1.802,2.033,4.869,1.15,7.668C-20.499,36.74-22.531,37.661-24.371,37.93
		 M-12.216,51.197c0.767-1.075,1.994-1.996,4.103-1.611c1.993,0.383,3.757,1.724,4.332,3.26c-1.111,1.188-3.22,1.762-5.253,1.379
		C-11.104,53.805-11.91,52.462-12.216,51.197 M-8.151,46.096c0.459-1.38,1.495-2.837,3.872-3.067
		c2.262-0.229,4.601,0.575,5.752,2.032c-0.806,1.649-2.876,2.991-5.177,3.222C-6.12,48.55-7.424,47.362-8.151,46.096 M-8.536,32.063
		c-0.383-1.457-0.383-3.221,1.496-4.831c1.803-1.496,4.219-2.109,6.021-1.572c0.269,1.878-0.729,4.18-2.531,5.675
		C-5.392,32.983-7.155,32.715-8.536,32.063 M-19.693,22.783c-1.151-1.035-2.147-2.646-1.38-5.062
		c0.729-2.339,2.493-4.217,4.409-4.754c1.266,1.496,1.687,4.065,0.959,6.404C-16.473,21.786-18.16,22.554-19.693,22.783
		 M13.819,79.379c-6.902-4.217-17.37-8.629-32.554-10.008c-0.038,0.19-0.154,1.304-0.154,2.378c0,0.498,0.077,1.147,0.116,1.304
		c14.8,0.957,25.383,4.102,32.515,6.67c0.153,0.039,0.269,0.117,0.345,0.117s0.115-0.039,0.115-0.117
		C14.202,79.607,14.087,79.571,13.819,79.379 M-27.553,25.199c-1.956-0.92-3.911-2.607-3.911-6.135c0-3.374,1.61-6.633,3.911-8.09
		c2.3,1.457,3.911,4.716,3.911,8.09C-23.642,22.591-25.598,24.317-27.553,25.199"/>
    <path fill="#007CC6" d="M52.967,33.941c0,2.262,1.88,4.063,4.18,4.063s4.141-1.839,4.141-4.063c0-2.262-1.877-4.065-4.141-4.065
		C54.847,29.876,52.967,31.717,52.967,33.941 M85.445,55.45c0,6.442-2.532,9.126-6.175,9.126c-3.682,0-5.752-3.105-5.752-8.589
		c0-5.597,3.184-10.198,9.126-10.198c1.229,0,2.07,0.115,2.801,0.306V55.45z M85.789,66.036v2.106c0,5.752-3.525,7.977-7.935,7.977
		c-3.95,0-6.865-1.189-7.786-1.494v5.674c0.768,0.19,3.948,1.226,8.514,1.226c8.127,0,13.535-3.335,13.535-14.839v-24.77
		c-1.035-0.269-4.871-1.265-9.243-1.265c-11.387,0-16.294,7.631-16.294,15.873c0,7.593,3.833,13.535,11.118,13.535
		c4.834,0,7.134-2.913,7.9-3.987h0.19V66.036z M47.063,62.506c-1.84,0.845-4.755,1.421-7.592,1.421
		c-7.708,0-13.42-5.522-13.42-13.958c0-8.359,5.637-13.958,13.42-13.958c3.834,0,6.596,0.92,7.592,1.418v-6.019
		c-1.688-0.614-4.409-1.266-8.281-1.266c-12.002,0-20.054,8.283-20.054,19.785c0,10.891,7.399,19.785,20.054,19.785
		c3.68,0,6.479-0.573,8.281-1.264V62.506z M148.75,55.45c0,6.442-2.531,9.126-6.174,9.126c-3.682,0-5.752-3.105-5.752-8.589
		c0-5.597,3.223-10.198,9.126-10.198c1.188,0,2.07,0.115,2.8,0.306V55.45z M156.305,69.371c-0.232-1.572-0.846-5.713-0.846-9.279
		V41.839c-1.035-0.267-4.87-1.265-9.24-1.265c-11.387,0-16.294,7.63-16.294,15.875c0,7.592,3.794,13.535,11.118,13.535
		c5.33,0,7.744-3.45,8.667-5.291h0.151c0.078,0.881,0.308,3.833,0.386,4.678H156.305z M60.481,41.304h-6.709v28.067h6.709V41.304z
		 M99.746,69.371V49.93c0-2.607-0.229-7.591-0.305-8.743h6.018l0.309,3.95h0.114c0.688-1.112,2.954-4.602,8.242-4.602
		c6.367,0,9.893,4.679,9.893,10.506v18.329h-6.709V52.384c0-3.565-1.992-6.288-5.405-6.288c-3.527,0-5.405,2.838-5.405,6.288v16.987
		H99.746z"/>
    <path fill="#007CC6" d="M166.771,64.234c-0.19-0.117-0.459-0.156-0.882-0.156h-0.612v1.496h0.651c0.306,0,0.535-0.036,0.691-0.075
		c0.269-0.117,0.42-0.308,0.42-0.654C167.039,64.539,166.924,64.347,166.771,64.234 M165.965,63.58c0.498,0,0.884,0.039,1.113,0.154
		c0.422,0.192,0.652,0.537,0.652,1.035c0,0.383-0.154,0.651-0.384,0.805c-0.153,0.076-0.347,0.154-0.576,0.193
		c0.308,0.037,0.576,0.19,0.69,0.381c0.154,0.232,0.232,0.425,0.232,0.654v0.305c0,0.076,0,0.193,0,0.309
		c0,0.114,0,0.192,0.037,0.229l0.036,0.039h-0.688v-0.039v-0.036v-0.117v-0.308c0-0.459-0.115-0.803-0.383-0.918
		c-0.154-0.078-0.423-0.117-0.807-0.117h-0.573v1.611h-0.729v-4.102h1.379V63.58z M163.782,63.39
		c-0.615,0.612-0.923,1.38-0.923,2.261c0,0.884,0.308,1.65,0.923,2.3c0.61,0.615,1.377,0.962,2.261,0.962
		c0.881,0,1.65-0.308,2.261-0.962c0.615-0.61,0.923-1.377,0.923-2.3c0-0.881-0.308-1.648-0.923-2.261
		c-0.61-0.615-1.38-0.96-2.261-0.96C165.159,62.43,164.393,62.738,163.782,63.39 M168.689,68.297
		c-0.73,0.728-1.611,1.113-2.646,1.113s-1.919-0.386-2.646-1.113s-1.074-1.611-1.074-2.646s0.386-1.916,1.113-2.646
		c0.728-0.728,1.611-1.072,2.646-1.072s1.916,0.384,2.646,1.072c0.728,0.73,1.111,1.611,1.111,2.646
		C169.801,66.686,169.417,67.569,168.689,68.297"/>
</g>
</svg>
