<?xml version="1.0" encoding="utf-8"?>
<!DOCTYPE svg PUBLIC "-//W3C//DTD SVG 1.1//EN" "http://www.w3.org/Graphics/SVG/1.1/DTD/svg11.dtd">
<svg xmlns:xlink="http://www.w3.org/1999/xlink" version="1.1" id="Layer_1" xmlns="http://www.w3.org/2000/svg" x="0px" y="0px"
     width="250px" height="65px" viewBox="-64.5 -17.5 250 65" enable-background="new -64.5 -17.5 250 65" xml:space="preserve">
<g>
	<defs>
		<rect id="SVGID_1_" x="-61.975" y="-15.365" width="244.948" height="60.731"/>
	</defs>
    <clipPath id="SVGID_2_">
		<use xlink:href="#SVGID_1_" overflow="visible"/>
	</clipPath>
    <g clip-path="url(#SVGID_2_)">
		<path fill="#7D3F98" d="M67.672,33.735l0.637,10.479c-3.302,0.779-6.69,1.146-10.083,1.092c-10.46,0-16.037-4.407-16.037-15.144
			c0-8.416,0.16-17.663,0.239-22.724h-5.42c0-2.283,0-5.557,0-7.94c8.138-1.35,10.699-5.953,11.909-14.845h8.95
			c-0.318,3.673-0.595,8.991-0.595,12.602h9.505V7.439h-9.644v18.339c0,7.104,1.427,9.049,6.33,9.049
			C64.936,34.825,66.385,34.449,67.672,33.735z M117.606,22.362c0-3.97,0-9.288,0-9.288c0-11.907-5.219-17.286-20.004-17.286
			c-8.295,0-14.21,1.448-23.479,1.448c0.515,8.376,0.534,18.717,0.495,25.106c-0.04,6.392-0.218,18.18-0.495,21.951h15.877
			c-0.357-3.771-0.693-14.627-0.637-21.951c0-4.168,0-9.208,0.22-15.977c1.86-0.63,3.812-0.951,5.776-0.951
			c5.556,0,7.343,2.599,7.343,9.784c0,0,0,4.506,0,7.144c0,6.51-0.218,18.18-0.498,21.951h15.878
			c-0.197-3.771-0.514-14.627-0.477-21.951V22.362z M11.389,24.448c-1.709,0-4.606,0-6.073-0.121v0.32
			c0,6.745,4.424,11.014,12.622,11.014c4.451-0.021,8.822-1.196,12.683-3.414l0.575,10.537c-5.005,1.834-10.312,2.704-15.641,2.562
			c-16.649,0-24.648-5.697-26.037-21.137c-1.986,0-4.763-0.198-8.675-0.218c-0.099,2.719-0.197,5.12-0.197,7.125
			c-0.098,4.402,0.135,8.809,0.694,13.178c-9.127,0-16.195,1.013-23.379,1.013c-13.594,0-18.377-5.639-18.377-15.242
			c0-9.607,7.681-14.35,24.272-14.35h2.284v-0.992c0-6.589-1.986-9.348-8.695-9.348c-4.555,0.136-9.018,1.324-13.039,3.474
			L-56.15-1.67c5.512-1.865,11.31-2.739,17.128-2.581c14.547,0,20.025,4.783,20.025,17.982c0,0.732,0,1.447,0,2.142
			c3.553,0,6.152,0,8.533,0.219c1.47-13.02,7.94-20.303,24.274-20.303c13.456,0,19.646,5.657,19.646,14.17
			C33.537,19.863,26.014,24.448,11.389,24.448L11.389,24.448z M-34.002,35.6c-0.238-3.194-0.14-7.816-0.099-11.767
			c-0.557,0-1.331,0-1.984,0c-6.907,0-9.666,2.321-9.666,6.409c0,4.089,2.164,5.955,7.225,5.955
			C-37,36.181-35.482,35.981-34.002,35.6L-34.002,35.6z M9.662,16.43c6.388,0,9.446-2.144,9.446-6.748
			c0-3.275-2.223-5.061-5.657-5.061c-6.052,0-8.156,4.842-8.156,11.45v0.237c1.15,0.1,2.778,0.121,4.306,0.121H9.662z
			 M165.518,44.215c-9.13,0-16.195,1.013-23.379,1.013c-13.598,0-18.38-5.639-18.38-15.242c0-9.605,7.663-14.35,24.274-14.35h2.281
			v-0.991c0-6.59-1.984-9.349-8.692-9.349c-4.557,0.136-9.019,1.324-13.039,3.474l-0.556-10.52
			c5.539-1.889,11.375-2.778,17.227-2.62c14.566,0,20.024,4.783,20.024,17.982c0,7.066-0.455,13.118-0.455,17.386
			c-0.144,4.44,0.05,8.885,0.575,13.297L165.518,44.215z M150.196,35.521c-0.237-3.194-0.139-7.816-0.101-11.767
			c-0.556,0-1.331,0-1.983,0c-6.907,0-9.667,2.321-9.667,6.409c0,4.089,2.165,5.955,7.226,5.955
			c1.505,0.004,3.003-0.167,4.466-0.519L150.196,35.521z"/>
        <path fill="#7D3F98" d="M170.539,5.97c-0.536-0.618-0.945-1.331-1.212-2.104c-0.281-0.817-0.423-1.676-0.417-2.541
			c-0.004-0.867,0.144-1.725,0.438-2.54c0.281-0.733,0.696-1.408,1.229-1.985c0.558-0.601,1.233-1.081,1.985-1.409
			c1.668-0.699,3.55-0.699,5.219,0c0.755,0.324,1.432,0.804,1.984,1.409c0.53,0.579,0.947,1.251,1.23,1.985
			c0.294,0.813,0.442,1.673,0.438,2.54c0.002,0.866-0.146,1.725-0.438,2.541c-0.27,0.775-0.688,1.488-1.23,2.104
			c-0.557,0.601-1.233,1.082-1.984,1.409c-1.669,0.699-3.551,0.699-5.219,0C171.796,7.061,171.104,6.579,170.539,5.97z
			 M172.959,6.407c0.68,0.31,1.417,0.465,2.164,0.456c0.747,0.016,1.485-0.14,2.165-0.456c0.606-0.288,1.146-0.7,1.585-1.21
			c0.443-0.521,0.779-1.12,0.993-1.768c0.225-0.672,0.338-1.375,0.338-2.083c-0.008-0.676-0.125-1.344-0.338-1.984
			c-0.218-0.642-0.554-1.234-0.993-1.747c-0.437-0.512-0.977-0.925-1.585-1.211c-1.376-0.597-2.936-0.597-4.31,0
			c-0.609,0.286-1.148,0.699-1.586,1.211c-0.438,0.512-0.778,1.105-0.992,1.747c-0.218,0.64-0.33,1.308-0.338,1.984
			c-0.018,1.053,0.235,2.091,0.733,3.017C171.29,5.249,172.045,5.964,172.959,6.407z M172.82-2.644h1.131h0.994
			c0.84-0.079,1.679,0.153,2.36,0.655c0.469,0.425,0.729,1.035,0.714,1.667c0.008,0.303-0.04,0.607-0.139,0.895
			c-0.091,0.251-0.226,0.488-0.396,0.694c-0.162,0.197-0.359,0.365-0.577,0.496c-0.205,0.129-0.435,0.225-0.674,0.278l0,0
			l1.982,3.194c-0.103,0.065-0.217,0.112-0.336,0.14h-0.316c-0.186,0-0.367-0.041-0.537-0.12c-0.187-0.097-0.336-0.251-0.436-0.435
			l-1.589-2.641h-0.971v3.095h-1.173L172.82-2.644z M175.181,0.988c1.075,0,1.609-0.456,1.609-1.389
			c0.023-0.361-0.133-0.711-0.415-0.933c-0.413-0.245-0.894-0.357-1.372-0.316h-0.573h-0.459l0,0v2.579L175.181,0.988z"/>
	</g>
</g>
</svg>
