<?xml version="1.0" encoding="utf-8"?>
<!-- Generator: Adobe Illustrator 15.0.2, SVG Export Plug-In  -->
<!DOCTYPE svg PUBLIC "-//W3C//DTD SVG 1.1//EN" "http://www.w3.org/Graphics/SVG/1.1/DTD/svg11.dtd" [
    <!ENTITY ns_flows "http://ns.adobe.com/Flows/1.0/">
    ]>
<svg version="1.1"
     xmlns="http://www.w3.org/2000/svg"
     x="0px" y="0px" width="500px" height="100px" viewBox="-14.858 -4.061 500 100" enable-background="new -14.858 -4.061 500 100"
     xml:space="preserve">
<defs>
</defs>
    <path d="M183.877,1.192h22.315c2.251,0.057,4.74,0.173,7.045,1.186c4.286,2.082,4.399,6.31,4.399,7.211
	c0,2.256-0.795,4.342-2.426,5.975c-2.646,2.76-6.142,3.156-8.68,3.438c2.765,0.116,7.212,0.338,10.654,3.832
	c1.347,1.296,2.986,3.607,2.986,7.269c0,2.594-0.847,5.297-2.986,7.442c-3.214,3.213-7.27,3.326-10.764,3.436h-22.545v-1.464h5.465
	l0.116-5.578V7.337l-0.116-4.679h-5.465V1.192z M198.304,2.884l-0.054,3.889l-0.058,11.497h3.72c2.479,0,4.45-0.789,5.242-1.802
	c0.956-1.128,1.465-2.992,1.465-5.922c0-6.367-1.978-7.549-6.311-7.662H198.304z M198.193,19.903v14.993l0.111,4.45h4.284
	c1.973-0.112,4.054-0.281,5.855-2.028c2.315-2.366,2.315-6.423,2.315-7.832c0-4.343-0.956-6.653-2.706-8.004
	c-1.294-1.014-3.547-1.637-6.984-1.579H198.193z"/>
    <path d="M229.394,1.192c2.649-0.055,3.438-0.055,5.919-0.224L235.2,7.224v27.785l0.113,4.508h3.885v1.463h-16.454v-1.463h4.228
	l0.111-4.508V7.224l-0.111-4.564h-4.228V1.192H229.394z"/>
    <path d="M244.815,13.706c2.933-0.058,3.833-0.058,6.595-0.227l-0.111,5.239v12.625c0,2.14,0.111,3.777,0.566,4.905
	c0.732,1.744,2.252,2.534,4.11,2.534c1.637,0,3.043-0.619,4.115-1.633c2.202-2.198,2.145-5.127,2.145-7.607v-10.03l-0.117-4.343
	h-4.169v-1.463h4.849c3.269-0.058,4.223-0.058,7.496-0.227l-0.113,5.239v15.613l0.113,5.128h4.055v1.521h-4.283
	c-3.608,0-4.904,0.059-7.605,0.224l-0.167-4.341c-1.188,1.468-3.948,4.736-10.314,4.736c-4.17,0-6.825-1.573-7.896-3.717
	c-0.845-1.576-0.784-3.609-0.784-5.298V19.284l-0.115-4.115h-4.111v-1.463H244.815z"/>
    <path d="M302.859,33.093c-1.464,2.76-4.512,8.51-13.019,8.51c-8.735,0-14.092-6.708-14.092-14.543c0-7.496,5.075-14.14,14.147-14.14
	c5.636,0,8.735,2.42,10.086,3.829c3.1,3.211,3.215,6.596,3.271,9.019h-18.822c0.06,4.789,0.169,9.127,2.534,11.606
	c1.298,1.353,3.155,1.918,5.016,1.918c6.084,0,8.396-5.133,9.189-6.935L302.859,33.093z M294.631,24.076
	c0.052-4.396,0.11-9.584-4.961-9.584c-4.788,0-5.014,4.79-5.18,9.584H294.631z"/>
    <path d="M343.375,38.162c-4.175,1.521-9.361,3.38-15.841,3.38c-11.608,0-20.229-8.34-20.229-20.514
	c0-13.128,9.918-20.736,21.134-20.736c3.439,0,8.732,0.788,14.705,3.381v11.214h-1.749c-0.275-2.144-0.725-5.637-4.163-9.075
	c-2.647-2.648-5.692-3.607-8.346-3.607c-2.984,0-5.973,1.245-7.94,3.214c-2.822,2.82-4.062,7.325-4.062,15.555
	c0,7.948,0.961,12.849,3.893,15.837c1.635,1.69,4.223,3.042,7.324,3.042c2.988,0,6.536-1.187,9.411-4.229
	c3.382-3.492,3.776-6.479,4.002-8.62h1.861V38.162z"/>
    <path d="M358.923,39.516h4.168v1.462h-16.514v-1.462h4.113l0.113-4.567V20.13l-0.113-4.961h-4.113v-1.465h6.311
	c2.594-0.052,3.438-0.052,5.808-0.227l0.112,4.285v1.241c0.394-1.241,0.788-2.31,2.026-3.549c1.299-1.351,3.154-2.257,5.188-2.257
	c3.607,0,5.128,2.877,5.128,5.412c0,3.436-2.256,4.002-3.494,4.002c-0.564,0-3.495-0.281-3.495-3.72
	c0-0.282,0.168-1.689,0.168-1.974c0-1.183-0.844-1.183-1.013-1.183c-0.735,0-1.749,0.902-2.481,2.028
	c-1.858,2.988-1.971,7.383-2.026,10.481v6.707L358.923,39.516z"/>
    <path d="M401.449,27.455c0,8.905-7.098,14.144-14.707,14.144c-8.284,0-14.313-5.97-14.313-14.368
	c0-8.848,6.422-14.145,14.203-14.257C395.759,12.804,401.449,19.284,401.449,27.455 M380.995,26.103
	c0,8.848,0.563,13.923,5.972,13.923c5.467,0,5.864-5.133,5.864-12.571c0-6.819-0.339-13.072-5.919-13.018
	C381.673,14.438,380.995,19.792,380.995,26.103"/>
    <path d="M407.353,30.609c0.22,1.636,0.389,2.988,1.291,4.678c0.9,1.802,3.216,4.621,7.215,4.621c3.321,0,5.524-1.86,5.524-4.113
	c0-2.539-2.484-3.55-6.088-4.847c-5.019-1.86-9.242-3.38-9.242-9.356c0-7.101,6.201-8.735,10.084-8.735
	c3.104,0,5.642,0.904,8.287,1.806l0.113,7.326h-1.692c-0.223-1.128-0.447-2.144-0.845-3.045c-0.732-1.52-2.869-4.223-6.478-4.223
	c-3.047,0-4.396,2.024-4.396,3.437c0,1.746,1.465,2.476,2.086,2.757c0.898,0.396,5.348,2.032,6.364,2.425
	c3.439,1.41,6.995,3.325,6.995,8.511c0,5.916-4.625,9.805-11.391,9.805c-3.72,0-6.538-1.012-9.467-2.082l-0.112-8.965H407.353z"/>
    <path d="M431.96,30.609c0.221,1.636,0.396,2.988,1.299,4.678c0.9,1.802,3.209,4.621,7.214,4.621c3.323,0,5.52-1.86,5.52-4.113
	c0-2.539-2.481-3.55-6.085-4.847c-5.017-1.86-9.246-3.38-9.246-9.356c0-7.101,6.205-8.735,10.093-8.735
	c3.095,0,5.633,0.904,8.282,1.806l0.108,7.326h-1.688c-0.222-1.128-0.451-2.144-0.842-3.045c-0.734-1.52-2.875-4.223-6.484-4.223
	c-3.043,0-4.394,2.024-4.394,3.437c0,1.746,1.467,2.476,2.086,2.757c0.902,0.396,5.351,2.032,6.364,2.425
	c3.438,1.41,6.989,3.325,6.989,8.511c0,5.916-4.622,9.805-11.385,9.805c-3.719,0-6.532-1.012-9.466-2.082l-0.115-8.965H431.96z"/>
    <path d="M183.995,51.471h22.312c2.261,0.053,4.74,0.169,7.051,1.182c4.281,2.085,4.392,6.311,4.392,7.216
	c0,2.252-0.787,4.338-2.418,5.971c-2.651,2.761-6.149,3.157-8.685,3.438c2.766,0.115,7.214,0.341,10.652,3.832
	c1.355,1.296,2.988,3.607,2.988,7.271c0,2.595-0.843,5.297-2.988,7.44c-3.211,3.21-7.267,3.322-10.762,3.435h-22.542v-1.464h5.466
	l0.113-5.582V57.612l-0.113-4.68h-5.466V51.471z M198.418,53.161l-0.055,3.888l-0.059,11.493h3.725c2.479,0,4.45-0.785,5.24-1.798
	c0.957-1.131,1.467-2.991,1.467-5.921c0-6.366-1.977-7.549-6.315-7.662H198.418z M198.305,70.179v14.995l0.113,4.449h4.285
	c1.974-0.113,4.057-0.281,5.863-2.028c2.309-2.369,2.309-6.426,2.309-7.833c0-4.342-0.959-6.652-2.703-8.003
	c-1.297-1.015-3.553-1.638-6.991-1.58H198.305z"/>
    <path d="M229.51,51.471c2.646-0.058,3.437-0.058,5.916-0.228l-0.113,6.257v27.783l0.113,4.508h3.888v1.464h-16.458v-1.464h4.232
	l0.106-4.508V57.5l-0.106-4.567h-4.232v-1.462H229.51z"/>
    <path d="M244.934,63.979c2.925-0.054,3.827-0.054,6.596-0.226l-0.115,5.244v12.622c0,2.14,0.115,3.777,0.563,4.907
	c0.731,1.742,2.257,2.535,4.114,2.535c1.636,0,3.043-0.62,4.112-1.633c2.198-2.204,2.14-5.128,2.14-7.61V69.785l-0.107-4.337h-4.173
	v-1.469h4.846c3.271-0.054,4.23-0.054,7.495-0.226l-0.111,5.244v15.606l0.111,5.132h4.059v1.524h-4.283
	c-3.604,0-4.906,0.053-7.604,0.221l-0.173-4.336c-1.183,1.465-3.941,4.734-10.313,4.734c-4.165,0-6.816-1.58-7.886-3.724
	c-0.85-1.573-0.793-3.604-0.793-5.296v-13.3l-0.112-4.11h-4.114v-1.469H244.934z"/>
    <path d="M302.413,83.365c-1.469,2.762-4.51,8.509-13.02,8.509c-8.735,0-14.087-6.701-14.087-14.539
	c0-7.495,5.067-14.145,14.146-14.145c5.632,0,8.732,2.424,10.082,3.833c3.102,3.211,3.212,6.594,3.271,9.017H283.98
	c0.061,4.791,0.172,9.133,2.537,11.608c1.296,1.354,3.153,1.918,5.021,1.918c6.082,0,8.397-5.127,9.18-6.93L302.413,83.365z
	 M294.179,74.35c0.061-4.393,0.117-9.578-4.958-9.578c-4.79,0-5.012,4.788-5.181,9.578H294.179z"/>
    <path d="M308.493,77.673c0.278,1.637,0.563,3.101,1.521,5.076c3.379,6.985,9.521,7.155,10.767,7.155c4.448,0,8.225-2.65,8.225-6.765
	c0-4.112-3.102-5.466-11.611-8.963c-1.353-0.562-2.651-1.067-3.89-1.744c-1.464-0.785-6.309-3.607-6.309-10.086
	c0-6.988,5.578-11.664,13.41-11.664c4.903,0,8.739,1.63,10.764,2.478l0.566,9.467h-1.806c-0.785-2.93-1.237-4.567-3.209-6.534
	c-1.979-2.033-4.564-3.442-7.387-3.442c-4.277,0-6.536,2.875-6.536,5.805c0,3.608,3.273,5.128,4.733,5.806
	c1.918,0.901,3.836,1.579,5.75,2.365c4.9,1.975,11.044,4.905,11.044,12.625c0,7.268-5.694,12.625-15.215,12.625
	c-4.842,0-8.564-1.354-12.229-2.65l-0.34-11.555H308.493z"/>
    <path d="M342.733,51.471c2.877,0,3.557-0.058,6.09-0.228l-0.112,6.146v10.706c1.071-1.689,2.141-3.269,5.357-4.227
	c1.351-0.455,2.705-0.619,4.109-0.619c4.176,0,6.197,1.635,7.103,2.479c2.08,2.087,2.254,4.566,2.365,6.707v13.41l0.115,3.945h3.886
	v1.464h-16.512v-1.464h4.342l0.109-3.945V72.32c0-2.2,0-6.592-4.396-6.592c-1.574,0-3.102,0.677-4.224,1.802
	c-1.918,1.917-2.087,4.454-2.256,7.723v10.592l0.112,3.945h4.228v1.464h-16.457v-1.464h4.113l0.113-3.998V57.39l-0.113-4.457h-4.113
	v-1.462H342.733z"/>
    <path d="M377.954,63.981c3.266-0.055,4.393-0.055,7.154-0.228l-0.115,6.203v15.438l0.115,4.396h3.891v1.464h-16.45v-1.464h4.223
	l0.109-4.396V69.957l-0.109-4.509h-4.223v-1.467H377.954z M376.26,55.639c0-2.422,2.032-4.45,4.509-4.45c2.424,0,4.4,1.97,4.4,4.45
	c0,2.483-1.977,4.453-4.4,4.453c-1.183,0-2.362-0.449-3.156-1.296C376.771,57.952,376.26,56.824,376.26,55.639"/>
    <path d="M417.949,83.365c-1.465,2.762-4.508,8.509-13.018,8.509c-8.736,0-14.09-6.701-14.09-14.539
	c0-7.495,5.072-14.145,14.149-14.145c5.632,0,8.731,2.424,10.086,3.833c3.101,3.211,3.21,6.594,3.267,9.017H399.52
	c0.058,4.791,0.174,9.133,2.535,11.608c1.299,1.354,3.157,1.918,5.022,1.918c6.077,0,8.394-5.127,9.178-6.93L417.949,83.365z
	 M409.72,74.35c0.062-4.393,0.111-9.578-4.958-9.578c-4.79,0-5.012,4.788-5.185,9.578H409.72z"/>
    <path d="M426.677,51.471c2.65-0.058,3.439-0.058,5.92-0.228l-0.115,6.257v27.783l0.115,4.508h3.889v1.464h-16.457v-1.464h4.228
	l0.115-4.508V57.5l-0.115-4.567h-4.228v-1.462H426.677z"/>
    <path d="M459.464,51.471c3.268,0,4.28-0.058,6.818-0.228l-0.113,4.565V85.79l0.113,3.945h4.001v1.521h-5.3
	c-3.154,0.057-4.168,0.057-6.818,0.225v-3.72c-1.298,1.636-3.321,4.118-8.565,4.118c-8.451,0-11.836-7.666-11.836-13.863
	c0-8.85,5.3-14.539,12.57-14.539c3.496,0,5.351,1.127,6.65,2.421c0.783,0.789,0.953,1.183,1.181,1.859V56.599l-0.111-3.666h-4.171
	v-1.462H459.464z M448.53,67.191c-1.634,1.694-1.917,5.02-1.917,10.314c0,6.479,0.171,11.891,5.355,11.891
	c1.407,0,3.044-0.449,4.336-1.806c1.527-1.576,1.975-3.55,1.975-10.649c0-5.07,0-11.272-5.973-11.213
	C450.553,65.729,449.265,66.404,448.53,67.191"/>
    <polygon fill="#FFFFFF" points="105.714,5.884 135.026,11.24 162.642,5.323 168.278,17.158 165.746,39.703 154.754,66.479
	135.307,84.514 116.145,66.761 106.562,47.313 103.179,26.459 "/>
    <path fill="#FFFFFF" d="M69.078,44.777c0,14.005-11.359,25.365-25.366,25.365c-14.005,0-25.362-11.359-25.362-25.365
	c0-14.011,11.357-25.363,25.362-25.363C57.719,19.414,69.078,30.766,69.078,44.777"/>
    <path fill="#0099D8" d="M73.255,83.844c0-2.659,2.178-4.834,4.861-4.834c2.665,0,4.834,2.176,4.834,4.834
	c0,2.683-2.169,4.864-4.834,4.864C75.433,88.708,73.255,86.526,73.255,83.844 M82.176,83.844c0-2.357-1.7-4.06-4.06-4.06
	c-2.373,0-4.092,1.703-4.092,4.06c0,2.386,1.719,4.084,4.092,4.084C80.476,87.928,82.176,86.229,82.176,83.844 M77.005,86.59h-0.708
	v-5.541h2.386c1.447,0,1.936,0.537,1.936,1.53c0,1.073-0.751,1.472-1.717,1.548l1.65,2.463h-0.799l-1.563-2.463h-1.184V86.59z
	 M77.986,83.484c0.774,0,1.855,0.129,1.855-0.917c0-0.773-0.641-0.872-1.316-0.872h-1.52v1.79H77.986z"/>
    <path fill="#0099D8" d="M158.099,83.844c0-2.659,2.179-4.834,4.861-4.834c2.668,0,4.838,2.176,4.838,4.834
	c0,2.683-2.17,4.864-4.838,4.864C160.278,88.708,158.099,86.526,158.099,83.844 M167.02,83.844c0-2.357-1.699-4.06-4.06-4.06
	c-2.373,0-4.086,1.703-4.086,4.06c0,2.386,1.713,4.084,4.086,4.084C165.321,87.928,167.02,86.229,167.02,83.844 M161.849,86.59
	h-0.709v-5.541h2.386c1.445,0,1.94,0.537,1.94,1.53c0,1.073-0.752,1.472-1.72,1.548l1.649,2.463h-0.801l-1.558-2.463h-1.188V86.59z
	 M162.833,83.484c0.771,0,1.856,0.129,1.856-0.917c0-0.773-0.646-0.872-1.315-0.872h-1.524v1.79H162.833z"/>
    <path fill="#0099D8" d="M132.517,24.468c-0.304,0.215-0.516,0.433-0.856,0.491c-0.678,0.108-0.578-0.478-1.046-0.808
	c-0.283-0.197-0.556,0.061-0.81-0.412c0.981,0.027,2.462,0.036,3.203,0.789C132.916,24.477,132.56,24.441,132.517,24.468"/>
    <path fill="#0099D8" d="M62.788,25.392V1.179H24.211v24.213H0v38.712h24.211v24.21h38.577v-24.21h24.217V25.392H62.788z
	 M43.571,20.899c9.592,0,17.863,5.646,21.67,13.801H48.222c-2.428-0.054-3.496-1.475-3.545-2.632
	c-0.061-1.373,0.156-1.807,1.286-3.271c1.236-1.639,0.381-4.792-2.393-4.847c-2.774,0.055-3.633,3.208-2.393,4.847
	c1.126,1.464,1.342,1.898,1.284,3.271c-0.047,1.157-1.117,2.578-3.549,2.632H21.891C25.703,26.545,33.974,20.899,43.571,20.899
	 M19.652,44.818c0-2.97,0.54-5.81,1.529-8.433h-0.007l0.007-0.007v0.007l16.047,1.55c3.012,0.415,3.36,3.339,2.567,5.093
	L28.799,63.667l0.013-0.031C23.234,59.258,19.652,52.453,19.652,44.818 M56.709,64.799c-3.77,2.486-8.286,3.931-13.139,3.931
	s-9.374-1.445-13.146-3.931l-0.007,0.013v-0.019c0.004,0,0.007,0.002,0.007,0.006L42.075,47.38c0.861-1.215,2.17-1.12,2.988,0
	L56.709,64.799c0.004-0.004,0.004-0.006,0.009-0.006v0.019L56.709,64.799z M58.325,63.635l0.013,0.031L47.345,43.028
	c-0.796-1.754-0.446-4.679,2.564-5.093l16.047-1.55l-0.004-0.007l0.011,0.007h-0.007c0.992,2.624,1.53,5.463,1.53,8.433
	C67.486,52.453,63.903,59.258,58.325,63.635"/>
    <path fill="#0099D8" d="M35.711,41.037l-12.146-1.122c-0.388,1.572-0.588,3.21-0.588,4.903c0,5.12,1.87,9.807,4.97,13.414
	l8.505-16.25C36.657,41.475,36.585,41.105,35.711,41.037"/>
    <path fill="#0099D8" d="M43.571,51.137c-0.124-0.002-0.24,0.055-0.339,0.184l-8.042,12.31c2.56,1.14,5.394,1.778,8.382,1.778
	c2.984,0,5.818-0.639,8.377-1.778l-8.042-12.31C43.807,51.192,43.692,51.135,43.571,51.137"/>
    <path fill="#0099D8" d="M37.848,25.027c-3.916,1.125-7.354,3.388-9.93,6.406l10.761-0.004c0.191-0.059,0.297-0.285,0.083-0.499
	C37.619,29.681,36.635,27.047,37.848,25.027"/>
    <path fill="#0099D8" d="M51.427,41.037c-0.879,0.068-0.944,0.438-0.743,0.944l8.514,16.25c3.093-3.607,4.966-8.294,4.966-13.414
	c0-1.693-0.206-3.331-0.587-4.903L51.427,41.037z"/>
    <path fill="#0099D8" d="M59.219,31.43c-2.579-3.013-6.017-5.274-9.927-6.404c1.214,2.024,0.231,4.655-0.917,5.901
	c-0.214,0.217-0.108,0.446,0.083,0.501L59.219,31.43z"/>
    <path fill="#0099D8" d="M135.212,78.383c-0.002,0-0.007-0.002-0.009-0.007c0,0.004-0.004,0.007-0.011,0.007H135.212z"/>
    <path fill="#0099D8" d="M147.141,16.367c-4.022,0.547-8.004,0.936-11.917,0.962h-0.037c-3.915-0.027-7.895-0.415-11.92-0.962
	c-4.019-0.539-7.914-1.458-12.078-2.573c-2.918,8.266-2.292,18.688-0.055,27.967c4.218,17.474,14.764,30.76,24.073,36.615
	c9.302-5.855,19.858-19.142,24.072-36.615c2.24-9.279,2.864-19.701-0.053-27.967C155.057,14.909,151.164,15.828,147.141,16.367
	 M132.878,70.224c-0.127,0.896,0.247,1.275,0.156,1.706c-0.156,0.699-0.595,0.483-0.853-0.027c-0.364-0.699-0.597-1.035-0.704-2.093
	c-0.162-1.681,0.678-2.486,1.063-2.867c0.412-0.417,0.799-0.62,0.799-0.62l0.13,2.816C133.469,69.139,133.008,69.321,132.878,70.224
	 M136.683,73.055c-0.007,0.479-0.188,0.841-1.077,0.858c-0.744,0.013-1.064-0.249-1.09-1.025c-0.119-3.429-0.269-9.874-0.269-9.874
	s0.959,0.301,1.416,0.565c0.147,0.089,0.659,0.402,1.092,0.856c0.093,0.142,0.166,0.167,0.151,0.376
	C136.86,67.314,136.698,71.96,136.683,73.055 M139.487,66.585c-0.784,0.646-1.72,0.871-1.72,0.871l0.1-2.556
	c0,0,0.289-0.249,0.204-0.57c-0.13-0.515-1.946-1.725-2.923-2.102c-0.994-0.385-2.313-0.77-3.254-1.18
	c-2.198-0.957-2.988-2.877-2.106-4.978c0.331-0.776,1.21-1.302,1.69-1.59c0.526-0.311,1.295-0.541,1.295-0.541l0.229,2.99
	c0,0-0.291,0.1-0.373,0.368c-0.167,0.526,0.313,0.816,0.434,0.872c1.44,0.636,3.536,1.474,5.062,2.369
	c1.97,1.158,2.616,2.003,2.627,3.387C140.758,65.191,140.221,65.98,139.487,66.585 M133.924,52.412
	c1.444,0.176,1.97,0.213,3.191,0.368l-0.117,5.97L135.603,58l-1.365-0.661L133.924,52.412z M142.635,53.715
	c-0.247,1.075-0.938,1.928-2.053,2.601c-1.178,0.705-2.401,0.762-2.401,0.762l0.099-3.614c0,0,0.27-0.058,0.462-0.301
	c0.183-0.221,0.233-0.383,0.183-0.694c-0.034-0.205-0.204-0.484-0.52-0.622c-0.357-0.157-0.914-0.208-1.142-0.23
	c-1.78-0.212-3.42-0.415-5.164-0.703c-3.155-0.514-5.39-2.33-5.195-5.347c0.128-2.014,2.246-2.638,3.744-3.283
	c0.495,0.875,0.934,1.813,1.117,2.274c0.282,0.828,0.437,1.345,0.437,1.345s-0.679,0.113-0.621,0.671
	c0.051,0.49,0.594,0.7,0.931,0.749c2.208,0.313,5.142,0.672,6.699,1.205c1.03,0.357,2.053,0.942,2.635,1.745
	C142.722,51.483,142.928,52.469,142.635,53.715 M132.621,39.364c0,0,0.745,0.078,2.546,0.197c1.377,0.091,2.311,0.484,2.311,0.484
	l-0.182,6.581c-1.468-0.282-2.43-0.438-3.8-0.618c-0.445-2.38-1.019-3.203-1.979-4.96c-0.219-0.39-0.027-0.541,0.028-0.645
	c0.135-0.235,1.098-0.47,1.098-0.47L132.621,39.364z M138.537,45.903c0,0,0.185-3.125,0.206-4.626
	c0.826-0.337,1.01-1.137,0.697-1.809c-0.167-0.37-0.802-0.632-1.163-0.728c-1.717-0.438-3.294-0.523-5.065-0.711
	c-1.551-0.164-2.792-0.371-4.214-0.734c-2.923-0.743-5.4-2.099-6.691-4.756c-1.606-3.282-0.167-7.368,2.98-9.002
	c2.392-1.246,5.071-1.009,7.477-0.089c0.831,0.326,1.282,1.045,1.795,1.752c0.234,0.319,0.584,0.448,0.788,0.795
	c0.113,0.196-0.149,0.293-0.262,0.33c-0.526,0.137-2.297,0.157-2.871,0.091c-0.717-0.087-1.925-0.052-2.644,0.098
	c0.762,0.427,1.565,0.955,2.323,1.243c0.463,0.175,0.82,0.173,1.241,0.388c0.177,0.091,0.671,0.233,0.671,0.466
	c-0.052,0.23-0.474,0.324-0.771,0.412c-0.684,0.206-1.617,0.229-2.484,0.028c-1.375-0.315-2.018-1.125-2.871-0.62
	c-0.567,0.334-0.569,1.111-0.388,1.887c0.295,1.219,1.581,1.73,2.656,2.076c3.754,1.212,7.762,0.527,11.424,2.414
	c1.414,0.724,3.009,2.205,3.309,3.779C145.931,45.129,138.537,45.903,138.537,45.903 M145.073,25.69
	c-0.205,0.681-0.375,0.671-0.825,1.083c-0.931,0.857-2.169,1.735-3.383,2.894c-0.775,0.745-1.518,1.178-2.077,2.072
	c-0.133,0.203-0.413,0.755-0.413,0.755c-2.064-0.417-4.171-0.453-5.782-0.78l-0.077-1.758c0,0,2.069-0.026,2.273-1.266
	c0.015-0.074-0.036-0.444-0.268-0.62c-0.282-0.208-0.901-0.438-1.051-0.494c1.57,0.246,2.944,0.83,4.549,1.523
	c0.106-0.171-0.16-0.767-0.286-0.902c-0.213-0.249-0.469-0.437-1.034-0.567c-0.972-0.254-3.333-0.543-3.333-0.543
	s0.851-0.029,1.992-0.076c0.498-0.083,1.015-0.279,1.124-0.447c0.117-0.26-0.043-0.639-0.39-1.015
	c-0.231-0.246-0.459-0.484-0.658-0.736c-0.236-0.33-0.546-0.962-0.979-1.344c-0.52-0.621-2.095-1.214-2.095-1.214
	s-0.13-1.063,0.13-1.58c0.193-0.378,1.04-0.421,1.303-0.29c1.182,0.66,2.518,1.388,4.097,1.658c0.331,0.246,0.34,0.32,0.439,0.805
	c0.224,1.062-0.186,2.614,0.024,3.347c0.107,0.237,0.348,0.228,0.526,0.133c1.469-0.799,2.466-2.165,3.955-2.797
	C143.533,23.236,145.523,24.233,145.073,25.69"/>
    <path fill="#0099D8" d="M165.444,0.051c-9.553,4.812-19.071,7.404-30.24,7.44C124.037,7.526,114.51,4.814,104.963,0
	c-6.277,12.349-7.258,32.402-1.84,49.158c5.223,16.147,15.363,30.854,32.081,40.099c16.725-9.246,26.86-23.952,32.086-40.099
	C172.707,32.402,171.717,12.402,165.444,0.051 M160.98,47.239c-4.694,13.79-12.022,25.998-25.776,34.518
	c0.006,0.002,0.013,0.01,0.02,0.016h-0.037c0.007-0.006,0.011-0.014,0.018-0.016c-13.751-8.52-21.081-20.729-25.775-34.518
	c-4.168-12.242-5.188-26.565-0.603-37.75c6.875,2.361,10.909,3.09,14.65,3.678c3.486,0.545,6.604,0.872,11.709,0.94h0.037
	c5.103-0.069,8.224-0.395,11.708-0.94c3.746-0.587,7.778-1.316,14.658-3.678C166.167,20.674,165.154,34.998,160.98,47.239"/>
</svg>
