<?xml version="1.0" encoding="utf-8"?>
<!-- Generator: Adobe Illustrator 15.0.2, SVG Export Plug-In . SVG Version: 6.00 Build 0)  -->
<svg xmlns:xlink="http://www.w3.org/1999/xlink" version="1.2" baseProfile="tiny" id="Layer_1" xmlns="http://www.w3.org/2000/svg"
     x="0px" y="0px" width="133px" height="49px" viewBox="0 0 133 49" xml:space="preserve">
<g id="Borders">
	<path id="Pill" fill="none" stroke="#666666" stroke-width="2" d="M113.868,42.368H35.736l7.555-8.286l0.224-17.858l-7.779-8.75
		h78.132c9.636,0,17.448,7.811,17.448,17.447S123.504,42.368,113.868,42.368L113.868,42.368z"/>
    <circle id="Circle" fill="none" stroke="#85C236" stroke-width="7" cx="24.921" cy="24.921" r="20.526"/>
</g>
    <g id="Lock">
	<path fill="#666666" d="M31.822,21.764L31.822,21.764h-0.058v-3.08c0-3.583-2.916-6.5-6.5-6.5c-3.585,0-6.5,2.917-6.5,6.5v3.08
		h-0.058c-1.67,0-3.022,1.352-3.022,3.02v9.012c0,1.67,1.353,3.021,3.022,3.021h13.115c1.668,0,3.021-1.353,3.021-3.021v-9.012
		C34.843,23.116,33.489,21.764,31.822,21.764z M26.992,31.479c0.05,0.459-0.308,0.858-0.769,0.858h-1.92
		c-0.46,0-0.82-0.399-0.769-0.858l0.802-2.53c-0.535-0.317-0.897-0.896-0.897-1.563c0-1.006,0.816-1.824,1.823-1.824
		c1.008,0,1.826,0.818,1.826,1.824c0,0.668-0.363,1.246-0.898,1.564L26.992,31.479z M29.712,21.764h-8.896v-3.079
		c0-2.453,1.996-4.448,4.448-4.448c2.451,0,4.447,1.995,4.447,4.448L29.712,21.764L29.712,21.764z"/>
</g>
    <g id="Text">
	<g>
		<polygon fill="#666666" points="56.616,19.623 58.554,19.623 58.554,17.537 60.721,13.875 58.849,13.875 57.667,15.862
			56.493,13.875 54.448,13.875 56.616,17.512 		"/>
        <path fill="#666666" d="M62.642,19.368L62.642,19.368c0.493,0.257,1.049,0.386,1.667,0.386c0.619,0,1.176-0.129,1.666-0.386
			c0.494-0.257,0.88-0.614,1.16-1.071c0.277-0.458,0.418-0.973,0.418-1.548s-0.14-1.091-0.418-1.548
			c-0.28-0.457-0.666-0.814-1.16-1.071c-0.491-0.258-1.047-0.386-1.666-0.386c-0.618,0-1.174,0.128-1.666,0.386
			c-0.493,0.257-0.879,0.614-1.158,1.071c-0.279,0.458-0.419,0.973-0.419,1.548s0.139,1.09,0.419,1.548
			C61.764,18.754,62.15,19.111,62.642,19.368z M63.193,15.989c0.114-0.216,0.269-0.383,0.464-0.5
			c0.194-0.118,0.412-0.177,0.652-0.177c0.24,0,0.459,0.059,0.653,0.177c0.195,0.117,0.349,0.284,0.465,0.5
			c0.115,0.217,0.172,0.47,0.172,0.76s-0.057,0.543-0.172,0.76c-0.116,0.216-0.271,0.382-0.465,0.5
			c-0.194,0.117-0.413,0.177-0.653,0.177c-0.241,0-0.458-0.059-0.652-0.177c-0.194-0.118-0.349-0.284-0.464-0.5
			c-0.115-0.217-0.173-0.47-0.173-0.76S63.078,16.206,63.193,15.989z"/>
        <path fill="#666666" d="M69.523,19.039c0.492,0.477,1.18,0.715,2.06,0.715c0.882,0,1.569-0.238,2.06-0.715
			c0.494-0.476,0.74-1.143,0.74-2.003v-3.161h-1.904v3.103c0,0.422-0.074,0.729-0.227,0.92c-0.15,0.192-0.367,0.288-0.652,0.288
			c-0.283,0-0.502-0.097-0.651-0.287c-0.151-0.192-0.228-0.499-0.228-0.92v-3.104h-1.938v3.161c0,0.859,0.246,1.527,0.738,2.003
			H69.523z"/>
        <path fill="#666666" d="M77.783,18.177h0.525l0.977,1.445h2.068l-1.205-1.773c0.35-0.181,0.617-0.424,0.803-0.731
			c0.188-0.306,0.279-0.665,0.279-1.075c0-0.438-0.106-0.821-0.319-1.15c-0.214-0.328-0.517-0.58-0.912-0.755
			c-0.394-0.175-0.856-0.263-1.388-0.263h-2.769v5.747h1.939L77.783,18.177L77.783,18.177z M77.783,15.369h0.705
			c0.263,0,0.462,0.059,0.592,0.177c0.131,0.117,0.197,0.283,0.197,0.497c0,0.213-0.066,0.379-0.198,0.496
			c-0.13,0.118-0.328,0.177-0.591,0.177h-0.705V15.369z"/>
        <polygon fill="#666666" points="63.346,31.85 64.427,31.85 64.427,36.044 65.104,36.044 65.104,31.254 63.346,31.254 		"/>
        <path fill="#666666" d="M60.095,33.621c-0.218-0.086-0.508-0.173-0.868-0.262c-0.278-0.063-0.499-0.123-0.66-0.18
			c-0.162-0.058-0.298-0.138-0.408-0.24c-0.109-0.103-0.164-0.234-0.164-0.399c0-0.224,0.098-0.405,0.291-0.547
			c0.194-0.142,0.485-0.212,0.872-0.212c0.22,0,0.443,0.031,0.671,0.1c0.228,0.064,0.443,0.162,0.643,0.29l0.225-0.547
			c-0.195-0.138-0.431-0.242-0.704-0.313c-0.273-0.074-0.552-0.11-0.835-0.11c-0.405,0-0.746,0.062-1.019,0.185
			s-0.478,0.287-0.612,0.493c-0.135,0.205-0.202,0.437-0.202,0.69c0,0.307,0.078,0.55,0.235,0.729
			c0.158,0.182,0.348,0.313,0.568,0.4c0.222,0.087,0.512,0.173,0.873,0.26c0.287,0.066,0.509,0.13,0.667,0.186
			c0.157,0.055,0.29,0.133,0.397,0.235s0.16,0.235,0.16,0.399c0,0.224-0.097,0.402-0.293,0.537c-0.197,0.136-0.493,0.201-0.89,0.201
			c-0.301,0-0.594-0.052-0.879-0.154c-0.286-0.103-0.52-0.234-0.701-0.399l-0.254,0.534c0.192,0.178,0.456,0.322,0.79,0.436h0.001
			c0.335,0.111,0.683,0.168,1.043,0.168c0.406,0,0.748-0.062,1.026-0.183c0.279-0.12,0.486-0.285,0.623-0.493
			c0.137-0.207,0.205-0.438,0.205-0.688c0-0.301-0.079-0.541-0.235-0.719C60.503,33.841,60.315,33.708,60.095,33.621z"/>
        <rect x="107.07" y="21.401" fill="#666666" width="1.938" height="5.75"/>
        <rect x="55.138" y="21.401" fill="#666666" width="1.938" height="5.75"/>
        <path fill="#666666" d="M95.953,26.146h2.184l0.387,1.002h2.002L98.014,21.4h-1.906l-2.512,5.749h1.971L95.953,26.146z
			 M97.045,23.306l0.559,1.445h-1.117L97.045,23.306z"/>
        <path fill="#666666" d="M71.773,22.727c-0.279,0.458-0.42,0.973-0.42,1.548c0,0.576,0.14,1.091,0.42,1.548
			c0.278,0.457,0.664,0.813,1.156,1.071v-0.002c0.493,0.258,1.049,0.388,1.666,0.388c0.618,0,1.176-0.13,1.668-0.388
			c0.491-0.256,0.879-0.612,1.157-1.069c0.278-0.458,0.418-0.973,0.418-1.548c0-0.575-0.139-1.09-0.418-1.548
			c-0.278-0.457-0.666-0.814-1.157-1.071c-0.492-0.257-1.05-0.386-1.668-0.386c-0.617,0-1.173,0.129-1.666,0.386
			C72.438,21.913,72.053,22.27,71.773,22.727z M73.48,23.515c0.115-0.216,0.27-0.382,0.463-0.5c0.195-0.117,0.412-0.177,0.652-0.177
			s0.459,0.059,0.653,0.177c0.194,0.118,0.351,0.284,0.465,0.5c0.114,0.217,0.173,0.47,0.173,0.76s-0.059,0.543-0.173,0.76
			c-0.114,0.216-0.271,0.383-0.465,0.5s-0.413,0.177-0.653,0.177s-0.457-0.06-0.652-0.177c-0.193-0.117-0.348-0.284-0.463-0.5
			c-0.114-0.217-0.172-0.47-0.172-0.76S73.366,23.732,73.48,23.515z"/>
        <rect x="55.389" y="31.254" fill="#666666" width="0.684" height="4.79"/>
        <polygon fill="#666666" points="64.252,21.401 62.363,21.401 62.363,24.012 60.18,21.401 58.587,21.401 58.587,27.148
			60.475,27.148 60.475,24.538 62.659,27.148 64.252,27.148 		"/>
        <polygon fill="#666666" points="104.311,27.148 104.311,22.904 105.994,22.904 105.994,21.401 100.689,21.401 100.689,22.904
			102.373,22.904 102.373,27.148 		"/>
        <path fill="#666666" d="M101.456,33.95c0,0.521-0.116,0.905-0.349,1.159c-0.233,0.252-0.568,0.381-1.006,0.381
			c-0.898,0-1.349-0.516-1.349-1.54v-2.696H98.07v2.725c0,0.684,0.177,1.209,0.533,1.572V35.55c0.354,0.365,0.852,0.548,1.492,0.548
			c0.637,0,1.135-0.182,1.489-0.543c0.354-0.363,0.534-0.889,0.534-1.578v-2.724h-0.664L101.456,33.95L101.456,33.95z"/>
        <path fill="#666666" d="M107.252,33.868c0.182-0.261,0.273-0.575,0.273-0.945c0-0.521-0.178-0.927-0.534-1.224
			c-0.356-0.299-0.845-0.445-1.464-0.445h-1.867v4.789h0.684v-1.457h1.184c0.072,0,0.173-0.004,0.303-0.014l1.031,1.472v-0.001
			h0.746l-1.137-1.605C106.809,34.316,107.068,34.128,107.252,33.868z M105.506,34.005h-1.162V31.85h1.162
			c0.434,0,0.766,0.094,0.993,0.276c0.228,0.187,0.343,0.451,0.343,0.798c0,0.348-0.115,0.613-0.343,0.801
			C106.271,33.911,105.939,34.005,105.506,34.005z"/>
        <path fill="#666666" d="M94.258,32.048c0.287-0.159,0.61-0.239,0.965-0.239c0.539,0,0.988,0.189,1.35,0.567l0.443-0.433
			c-0.22-0.245-0.482-0.432-0.793-0.557c-0.312-0.125-0.652-0.188-1.025-0.188c-0.479,0-0.913,0.105-1.301,0.318
			c-0.389,0.211-0.691,0.502-0.91,0.875c-0.221,0.371-0.329,0.791-0.329,1.256c0,0.466,0.108,0.884,0.329,1.254
			c0.219,0.373,0.521,0.664,0.906,0.877s0.816,0.318,1.297,0.318c0.373,0,0.718-0.063,1.029-0.19
			c0.313-0.13,0.577-0.315,0.797-0.563l-0.443-0.43c-0.365,0.383-0.815,0.575-1.35,0.575c-0.354,0-0.678-0.08-0.965-0.24
			s-0.512-0.38-0.673-0.66c-0.164-0.28-0.243-0.594-0.243-0.942c0-0.346,0.08-0.66,0.243-0.938
			C93.746,32.428,93.971,32.208,94.258,32.048z"/>
        <polygon fill="#666666" points="121.832,21.401 121.832,24.012 119.648,21.401 118.055,21.401 118.055,27.148 119.943,27.148
			119.943,24.538 122.128,27.148 123.721,27.148 123.721,21.401 		"/>
        <path fill="#666666" d="M69.247,31.49c-0.294-0.194-0.628-0.29-1.003-0.29c-0.378,0-0.715,0.096-1.008,0.29
			c-0.295,0.193-0.526,0.475-0.695,0.845s-0.253,0.808-0.253,1.313s0.084,0.943,0.253,1.313s0.401,0.652,0.695,0.847
			c0.293,0.192,0.631,0.291,1.009,0.291c0.374,0,0.708-0.099,1.002-0.291c0.295-0.193,0.526-0.477,0.694-0.847
			c0.168-0.369,0.252-0.808,0.252-1.313c0-0.508-0.084-0.943-0.252-1.313C69.773,31.966,69.541,31.686,69.247,31.49z M69.165,35.018
			c-0.229,0.314-0.537,0.473-0.92,0.473c-0.388,0-0.696-0.157-0.929-0.473c-0.229-0.314-0.343-0.771-0.343-1.367
			c0-0.6,0.114-1.056,0.343-1.369c0.231-0.314,0.541-0.473,0.929-0.473c0.383,0,0.69,0.157,0.92,0.473
			c0.229,0.314,0.345,0.771,0.345,1.369C69.51,34.247,69.395,34.702,69.165,35.018z"/>
        <polygon fill="#666666" points="89.029,33.9 91.434,33.9 91.434,33.318 89.029,33.318 89.029,31.85 91.727,31.85 91.727,31.254
			88.346,31.254 88.346,36.043 91.822,36.043 91.822,35.448 89.029,35.448 		"/>
        <path fill="#666666" d="M115.197,21.656c-0.491-0.257-1.049-0.386-1.666-0.386c-0.619,0-1.174,0.129-1.668,0.386
			c-0.491,0.257-0.877,0.614-1.156,1.071c-0.279,0.458-0.42,0.973-0.42,1.548c0,0.576,0.141,1.091,0.42,1.548
			s0.665,0.813,1.156,1.071v-0.002c0.494,0.258,1.049,0.388,1.668,0.388c0.617,0,1.175-0.13,1.666-0.388
			c0.492-0.256,0.88-0.612,1.158-1.069c0.278-0.458,0.42-0.973,0.42-1.548c0-0.575-0.142-1.09-0.42-1.548
			C116.077,22.27,115.689,21.913,115.197,21.656z M114.648,25.035c-0.115,0.216-0.271,0.383-0.465,0.5
			c-0.195,0.117-0.412,0.177-0.652,0.177c-0.241,0-0.458-0.06-0.653-0.177c-0.194-0.117-0.349-0.284-0.464-0.5
			c-0.115-0.217-0.172-0.47-0.172-0.76s0.057-0.543,0.172-0.76c0.115-0.216,0.27-0.382,0.464-0.5
			c0.195-0.117,0.413-0.177,0.653-0.177s0.457,0.059,0.652,0.177c0.193,0.118,0.35,0.284,0.465,0.5
			c0.115,0.217,0.172,0.47,0.172,0.76S114.764,24.818,114.648,25.035z"/>
        <polygon fill="#666666" points="109.454,33.9 111.855,33.9 111.855,33.318 109.454,33.318 109.454,31.85 112.15,31.85
			112.15,31.254 108.77,31.254 108.77,36.043 112.245,36.043 112.245,35.448 109.454,35.448 		"/>
        <path fill="#666666" d="M73.948,31.49c-0.296-0.194-0.63-0.29-1.005-0.29c-0.377,0-0.715,0.096-1.008,0.29
			c-0.295,0.193-0.524,0.475-0.694,0.845c-0.169,0.37-0.253,0.808-0.253,1.313s0.084,0.943,0.253,1.313s0.401,0.652,0.694,0.847
			c0.293,0.193,0.631,0.291,1.008,0.291c0.375,0,0.709-0.099,1.005-0.291c0.294-0.193,0.526-0.477,0.694-0.847
			c0.168-0.369,0.252-0.808,0.252-1.313c0-0.508-0.084-0.943-0.252-1.313C74.475,31.966,74.242,31.686,73.948,31.49z M73.865,35.018
			c-0.23,0.314-0.537,0.473-0.922,0.473s-0.695-0.157-0.926-0.473c-0.23-0.314-0.345-0.771-0.345-1.367
			c0-0.6,0.114-1.056,0.345-1.369c0.23-0.314,0.539-0.473,0.928-0.473c0.383,0,0.688,0.157,0.92,0.473
			c0.23,0.314,0.346,0.771,0.346,1.369C74.211,34.247,74.096,34.702,73.865,35.018z"/>
        <path fill="#666666" d="M77.532,33.467c0.202-0.238,0.305-0.555,0.305-0.945c0-0.394-0.103-0.709-0.305-0.947
			c-0.203-0.24-0.47-0.36-0.804-0.36c-0.332,0-0.603,0.121-0.808,0.363c-0.205,0.241-0.308,0.556-0.308,0.944
			c0,0.388,0.103,0.701,0.308,0.942c0.205,0.243,0.476,0.363,0.808,0.363C77.063,33.827,77.33,33.707,77.532,33.467z M76.059,32.52
			c0-0.281,0.062-0.506,0.183-0.67c0.12-0.164,0.282-0.246,0.487-0.246c0.211,0,0.373,0.082,0.494,0.244
			c0.117,0.16,0.176,0.385,0.176,0.674c0,0.287-0.059,0.512-0.176,0.674c-0.121,0.162-0.283,0.242-0.494,0.242
			c-0.205,0-0.367-0.082-0.487-0.246C76.118,33.025,76.059,32.805,76.059,32.52z"/>
        <polygon fill="#666666" points="65.762,27.148 67.7,27.148 67.7,25.311 70.098,25.311 70.098,23.848 67.7,23.848 67.7,22.863
			70.434,22.863 70.434,21.401 65.762,21.401 		"/>
        <polygon fill="#666666" points="79.616,31.254 76.346,36.044 76.872,36.044 80.145,31.254 		"/>
        <path fill="#666666" d="M79.76,33.47c-0.332,0-0.601,0.12-0.805,0.36c-0.203,0.238-0.303,0.556-0.303,0.947
			c0,0.393,0.101,0.707,0.303,0.947c0.204,0.239,0.473,0.359,0.805,0.359s0.604-0.122,0.807-0.363
			c0.207-0.242,0.31-0.556,0.31-0.943c0-0.389-0.103-0.701-0.31-0.944C80.361,33.592,80.092,33.47,79.76,33.47z M80.25,35.448
			c-0.122,0.163-0.285,0.245-0.49,0.245c-0.209,0-0.373-0.079-0.492-0.241s-0.178-0.388-0.178-0.675s0.059-0.512,0.178-0.674
			c0.119-0.164,0.283-0.244,0.492-0.244c0.205,0,0.369,0.082,0.489,0.248c0.122,0.162,0.183,0.388,0.183,0.67
			C80.432,35.061,80.37,35.284,80.25,35.448L80.25,35.448z"/>
        <polygon fill="#666666" points="89.68,26.632 90.928,24.53 90.943,27.148 92.709,27.148 92.693,21.401 91.102,21.401
			89.277,24.464 87.404,21.401 85.813,21.401 85.813,27.148 87.578,27.148 87.578,24.62 88.826,26.632 		"/>
        <path fill="#666666" d="M86.409,33.621c-0.218-0.086-0.509-0.173-0.868-0.262c-0.277-0.063-0.499-0.123-0.66-0.18
			c-0.162-0.058-0.298-0.138-0.408-0.24c-0.107-0.103-0.162-0.234-0.162-0.399c0-0.224,0.098-0.405,0.289-0.547
			c0.194-0.142,0.485-0.212,0.873-0.212c0.219,0,0.442,0.031,0.672,0.1c0.228,0.064,0.441,0.162,0.643,0.29l0.227-0.547
			c-0.195-0.138-0.433-0.242-0.705-0.313c-0.272-0.074-0.553-0.11-0.834-0.11c-0.406,0-0.746,0.062-1.021,0.185
			s-0.478,0.287-0.611,0.493c-0.136,0.205-0.2,0.437-0.2,0.69c0,0.307,0.078,0.55,0.232,0.729c0.158,0.182,0.35,0.313,0.566,0.4
			c0.225,0.087,0.515,0.173,0.873,0.26c0.287,0.066,0.512,0.13,0.668,0.186c0.158,0.055,0.289,0.133,0.397,0.235
			c0.106,0.103,0.16,0.235,0.16,0.399c0,0.224-0.099,0.402-0.294,0.537c-0.195,0.136-0.493,0.201-0.889,0.201
			c-0.303,0-0.596-0.052-0.881-0.154c-0.285-0.102-0.52-0.234-0.701-0.399l-0.252,0.534c0.19,0.178,0.455,0.322,0.789,0.436
			c0.336,0.111,0.684,0.168,1.043,0.168c0.408,0,0.748-0.062,1.026-0.183c0.278-0.12,0.485-0.285,0.623-0.493
			c0.138-0.207,0.204-0.438,0.204-0.688c0-0.301-0.077-0.541-0.234-0.719C86.816,33.84,86.629,33.708,86.409,33.621z"/>
        <path fill="#666666" d="M83.424,25.375c0.35-0.182,0.618-0.424,0.803-0.73c0.188-0.306,0.281-0.666,0.281-1.076
			c0-0.438-0.107-0.821-0.322-1.149c-0.213-0.329-0.516-0.581-0.91-0.756c-0.393-0.175-0.855-0.263-1.389-0.263h-2.766v5.75h1.938
			v-1.446h0.525v0.001l0.977,1.445h2.069L83.424,25.375z M82.355,24.066c-0.131,0.117-0.328,0.176-0.59,0.176h-0.707v-1.346h0.707
			c0.262,0,0.459,0.059,0.59,0.177v-0.001c0.131,0.117,0.196,0.284,0.196,0.497C82.553,23.782,82.486,23.948,82.355,24.066z"/>
	</g>
</g>
</svg>
